<svg width="60" height="24" fill="none" xmlns="http://www.w3.org/2000/svg"><path d="M25.97 19.53a.75.75 0 0 1-.073-.976l.073-.084L32.439 12l-6.47-6.47a.75.75 0 0 1-.072-.976l.073-.084a.75.75 0 0 1 .976-.073l.084.073 7 7a.75.75 0 0 1 .073.976l-.073.084-7 7a.75.75 0 0 1-1.06 0Z" fill="#fff" fill-opacity=".5"/><path d="M43.97 19.53a.75.75 0 0 1-.073-.976l.073-.084L50.439 12l-6.47-6.47a.75.75 0 0 1-.072-.976l.073-.084a.75.75 0 0 1 .976-.073l.084.073 7 7a.75.75 0 0 1 .073.976l-.073.084-7 7a.75.75 0 0 1-1.06 0Z" fill="#fff"/><path d="M7.97 19.53a.75.75 0 0 1-.073-.976l.073-.084L14.439 12l-6.47-6.47a.75.75 0 0 1-.072-.976l.073-.084a.75.75 0 0 1 .976-.073l.084.073 7 7a.75.75 0 0 1 .073.976l-.073.084-7 7a.75.75 0 0 1-1.06 0Z" fill="#fff" fill-opacity=".25"/></svg>