<svg width="852" height="852" viewBox="0 0 852 852" fill="none" xmlns="http://www.w3.org/2000/svg">
<path d="M425.765 852C265.353 852 125.602 762.987 53.2532 631.544C-106.36 341.732 113.796 -10.0864 435.177 0.221288C639.62 4.37631 812.315 155.315 845.259 356.035C888.493 615.084 688.676 852 425.765 852Z" fill="url(#paint0_radial_102_52)"/>
<g opacity="0.75">
<path d="M594.633 494.908C577.005 490.514 572.139 512.487 582.11 517.441C592.081 522.475 617.128 537.497 622.153 527.429C627.178 517.441 614.655 499.942 594.633 494.908Z" fill="#8E3316"/>
<path d="M769.722 309.53C752.652 313.446 732.231 322.075 749.7 334.62C767.249 347.165 794.689 342.131 797.241 327.109C799.714 312.007 802.267 302.019 769.722 309.53Z" fill="#8E3316"/>
<path d="M427.042 712.887C390.349 690.833 336.985 682.843 331.959 705.376C326.934 727.908 361.952 762.986 404.468 757.952C447.063 752.998 452.089 727.909 427.042 712.887Z" fill="#8E3316"/>
<path d="M546.697 834.501C513.594 844.33 478.815 850.242 442.84 851.601C451.056 799.423 500.592 815.884 527.074 823.075C534.812 825.233 541.273 829.467 546.697 834.501Z" fill="#8E3316"/>
<path d="M194.445 710.41C210.638 717.521 221.964 682.843 199.47 652.799C176.976 622.755 166.925 585.12 139.406 577.609C111.886 570.098 96.8899 667.821 194.445 710.41Z" fill="#8E3316"/>
<path d="M84.3636 587.598C75.5095 589.196 71.8402 607.654 91.8617 610.131C111.883 612.688 111.883 582.644 84.3636 587.598Z" fill="#8E3316"/>
<path d="M306.996 484.92C289.367 483.322 271.978 492.431 274.451 512.487C276.924 532.543 304.443 512.487 316.966 512.487C329.49 512.487 334.515 487.397 306.996 484.92Z" fill="#8E3316"/>
<path d="M479.607 251.92C464.451 244.728 462.058 277.01 474.581 281.964C487.105 286.998 522.122 271.896 479.607 251.92Z" fill="#8E3316"/>
</g>
<path d="M319.516 414.764C234.485 429.786 221.961 432.263 144.428 497.465C93.1378 540.534 39.6142 526.63 9.30278 512.247C3.63933 484.441 0.607971 455.595 0.607971 426.031C0.607971 304.896 51.1006 195.507 132.144 118C148.815 127.908 166.045 141.332 179.445 159.231C216.936 209.331 209.438 229.386 319.516 286.997C429.515 344.608 404.548 399.742 319.516 414.764Z" fill="url(#paint1_linear_102_52)"/>
<path d="M810.084 243.53C731.593 227.069 678.069 316.003 624.625 309.53C562.088 302.019 579.637 209.331 527.07 111.608C500.747 62.7064 498.912 28.8271 503.619 7.25293C639.462 32.3428 752.572 122.155 810.084 243.53Z" fill="url(#paint2_linear_102_52)"/>
<path d="M851.005 426.03C851.005 591.352 757.04 734.62 619.681 805.255C588.333 755.635 639.145 718.799 699.688 680.365C774.749 632.742 704.713 612.686 717.157 535.019C729.68 457.353 682.139 452.319 704.633 387.197C720.667 340.692 804.262 384.8 850.766 413.885C850.926 417.88 851.005 421.955 851.005 426.03Z" fill="url(#paint3_linear_102_52)"/>
<path d="M452.089 555.076C406.622 569.219 382.054 514.964 324.542 527.509C267.03 540.054 219.489 642.73 297.022 640.253C374.556 637.776 394.577 627.708 452.089 667.82C509.601 707.932 577.164 680.365 597.185 617.72C617.127 555.076 604.603 507.453 452.089 555.076Z" fill="url(#paint4_linear_102_52)"/>
<path d="M547.088 367.14C523.158 374.811 517.096 387.196 524.594 402.218C532.092 417.24 562.085 414.763 577.081 437.296C592.077 459.829 629.647 487.396 639.618 437.296C649.668 387.196 602.127 349.562 547.088 367.14Z" fill="url(#paint5_linear_102_52)"/>
<path opacity="0.5" d="M459.59 236.817C455.123 270.217 424.572 236.817 374.558 226.829C324.545 216.841 304.523 186.718 327.017 166.662C349.512 146.606 379.504 131.584 409.576 149.083C439.569 166.662 464.535 199.263 459.59 236.817Z" fill="#8E3316"/>
<path d="M407.017 38.8946C344.48 38.8946 314.488 73.9726 256.976 94.0286C222.676 105.934 195.555 92.1108 179.203 79.0065C248.76 29.3061 333.871 0.0612793 425.843 0.0612793C429.033 0.0612793 432.144 0.0611915 435.255 0.221C439.642 18.2793 438.047 38.8946 407.017 38.8946Z" fill="url(#paint6_linear_102_52)"/>
<path opacity="0.45" d="M830.742 556.354C796.044 664.624 719.228 754.037 619.679 805.256C596.467 817.161 572.058 826.99 546.692 834.581C513.589 844.409 478.811 850.322 442.836 851.68C437.172 851.92 431.509 852 425.766 852C265.354 852 125.603 762.987 53.2542 631.544C32.9934 594.788 17.9974 554.676 9.30278 512.247C3.63933 484.44 0.607971 455.595 0.607971 426.031C0.607971 374.572 9.70149 325.271 26.3728 279.646C74.4722 423.553 184.551 609.251 434.779 643.689C483.597 650.401 529.223 651.28 571.819 647.605C676.313 638.416 762.302 601.82 830.742 556.354Z" fill="url(#paint7_linear_102_52)"/>
<path opacity="0.45" d="M850.999 426.03C850.999 471.496 843.9 515.283 830.739 556.354C796.04 664.624 719.224 754.037 619.675 805.256C596.463 817.161 572.055 826.99 546.689 834.581C513.585 844.409 478.807 850.322 442.832 851.68C437.169 851.92 431.505 852 425.762 852C265.351 852 125.599 762.986 53.2505 631.544C126.796 661.828 214.38 682.523 318.236 686.598C418.982 690.593 502.577 675.012 571.815 647.525C720.66 588.556 803.618 474.452 848.606 380.485C849.803 391.432 850.521 402.619 850.84 413.805C850.92 417.88 850.999 421.955 850.999 426.03Z" fill="url(#paint8_linear_102_52)"/>
<path d="M845.341 356.274C845.341 356.274 784.798 134.141 506.412 61.0283C339.539 17.1609 223.717 56.7135 157.75 95.3872C368.415 -76.8863 690.593 -8.48834 810.084 243.529C837.843 301.939 843.347 348.124 845.341 356.274Z" fill="url(#paint9_linear_102_52)"/>
<defs>
<radialGradient id="paint0_radial_102_52" cx="0" cy="0" r="1" gradientUnits="userSpaceOnUse" gradientTransform="translate(446.875 259.336) scale(516.046 516.935)">
<stop stop-color="#E57E33"/>
<stop offset="1" stop-color="#C64F1C"/>
</radialGradient>
<linearGradient id="paint1_linear_102_52" x1="146.385" y1="-230.684" x2="244.263" y2="994.435" gradientUnits="userSpaceOnUse">
<stop stop-color="#F29036"/>
<stop offset="1" stop-color="#F29C36" stop-opacity="0"/>
</linearGradient>
<linearGradient id="paint2_linear_102_52" x1="623.533" y1="-268.805" x2="721.412" y2="956.315" gradientUnits="userSpaceOnUse">
<stop stop-color="#F26336"/>
<stop offset="1" stop-color="#F2C936" stop-opacity="0"/>
</linearGradient>
<linearGradient id="paint3_linear_102_52" x1="661.42" y1="-271.833" x2="759.299" y2="953.286" gradientUnits="userSpaceOnUse">
<stop stop-color="#F27A36"/>
<stop offset="1" stop-color="#F27A36" stop-opacity="0"/>
</linearGradient>
<linearGradient id="paint4_linear_102_52" x1="363.471" y1="-248.029" x2="461.349" y2="977.094" gradientUnits="userSpaceOnUse">
<stop stop-color="#F28536"/>
<stop offset="1" stop-color="#F27A36" stop-opacity="0"/>
</linearGradient>
<linearGradient id="paint5_linear_102_52" x1="528.115" y1="-261.184" x2="625.993" y2="963.94" gradientUnits="userSpaceOnUse">
<stop stop-color="#F29C36"/>
<stop offset="1" stop-color="#F27A36" stop-opacity="0"/>
</linearGradient>
<linearGradient id="paint6_linear_102_52" x1="285.237" y1="-241.779" x2="383.115" y2="983.342" gradientUnits="userSpaceOnUse">
<stop stop-color="#F27A36"/>
<stop offset="1" stop-color="#F27A36" stop-opacity="0"/>
</linearGradient>
<linearGradient id="paint7_linear_102_52" x1="361.132" y1="977.472" x2="425.128" y2="394.986" gradientUnits="userSpaceOnUse">
<stop stop-color="#8E2416"/>
<stop offset="1" stop-color="#8E3316" stop-opacity="0.3"/>
</linearGradient>
<linearGradient id="paint8_linear_102_52" x1="404.009" y1="952.43" x2="475.533" y2="343.642" gradientUnits="userSpaceOnUse">
<stop stop-color="#6F1B16"/>
<stop offset="1" stop-color="#653216" stop-opacity="0.3"/>
</linearGradient>
<linearGradient id="paint9_linear_102_52" x1="734.585" y1="-234.535" x2="466.22" y2="293.762" gradientUnits="userSpaceOnUse">
<stop stop-color="#FFC7B5"/>
<stop offset="1" stop-color="#FFC1B3" stop-opacity="0"/>
</linearGradient>
</defs>
</svg>
