<svg width="150" height="150" fill="none" xmlns="http://www.w3.org/2000/svg"><path fill-rule="evenodd" clip-rule="evenodd" d="M149.717 74.758c0 7.097-.946 14.195-2.839 20.661-3.785 13.248-11.198 24.919-20.976 34.067-6.94 6.466-15.299 11.671-24.446 15.141-8.202 3.154-17.192 4.889-26.497 4.889-1.262 0-2.681 0-3.943-.158-1.892-.157-3.943-.315-5.835-.473-14.353-1.892-27.6-7.886-38.168-16.876-3.943-3.312-7.57-7.097-10.883-11.198-2.365-3.154-4.573-6.308-6.466-9.778-.473-.789-.946-1.735-1.42-2.523v-.158c-.473-.946-.946-1.735-1.261-2.681-1.262-2.839-2.366-5.836-3.312-8.833-.631-2.208-1.262-4.416-1.735-6.624-.316-1.577-.631-3.154-.789-4.889-.473-3.47-.788-6.94-.788-10.567 0-2.05 0-4.1.315-6.151l.473-3.785a70.498 70.498 0 0 1 5.994-20.819 64.31 64.31 0 0 1 5.046-9.148c3.155-4.889 6.782-9.463 11.04-13.563C36.635 8.202 55.088.157 75.276.157h2.365c.789 0 1.735 0 2.524.158 4.258.316 8.517.946 12.617 1.893 2.366.63 4.732 1.262 6.94 2.05 1.577.473 2.996 1.104 4.574 1.735l3.312 1.42c.157.157.315.157.631.315 7.255 3.47 13.879 8.201 19.557 13.88.788.788 1.577 1.576 2.365 2.523.474.63 1.104 1.104 1.578 1.734.946.947 1.734 2.05 2.523 2.997 2.997 3.785 5.52 7.886 7.728 12.144 2.524 5.047 4.574 10.41 5.993 15.93.947 5.52 1.735 11.513 1.735 17.822Z" fill="url(#a)"/><path opacity=".3" fill-rule="evenodd" clip-rule="evenodd" d="M107.764 7.57c-.315 0-.473 0-.788.158-.789.158-1.577 0-2.366-.158-.631-.157-.946-.473-1.735-.473-.946-.157-1.735-.473-2.681-.63-.946-.158-1.735-.474-2.681-.79-.789-.315-1.104-.157-1.735 0-.631.159-1.104-.157-1.735-.315-.63-.315-1.42-.315-2.05-.473-1.893-.315-3.785-.946-5.678-1.42-1.104-.315-2.208-.315-3.47-.315-.946 0-1.735.316-2.681.316-.631 0-1.104-.158-1.735-.158-.63-.158-1.262 0-1.893 0-.946-.158-1.42-.315-2.365 0-.789.158-1.262.158-2.05.315-.79 0-1.736.316-2.524.474-1.42.315-2.997.63-4.416.63-.947 0-2.208-.315-2.997 0-.473.158-.788.79-1.262 1.105-.788.788-1.577 1.419-2.208 2.208-.63.788-1.261 1.734-1.261 2.838 0 .947.473 2.05.946 2.84.473.946.63 1.734-.316 2.365-1.104.789-2.523 1.42-3.785 1.893-.946.315-1.735.473-2.366-.158-.315-.158-.473-.63-.788-.946-.316-.158-.789 0-1.104.157-.947.316-1.893.631-2.84.79-.63.157-1.103.472-1.734.472-.63.158-1.104-.315-1.893-.158-.946.158-2.05.631-2.996.631-.789 0-1.735-.315-2.366-.63-.316-.158-.473-.474-.946-.316-.316 0-.789.473-.947.789-.315.315-.315.788-.63 1.104-.316.473-.474.788-.79 1.261-.472.789-.945 1.578-1.419 2.366-.315.473-.63 1.262-1.104 1.735-.157.315-.63.473-.946.631-.788.473-1.577 1.104-2.366 1.577-1.42 1.104-2.839 2.366-4.258 3.47-1.104.789-2.681 1.262-3.943 1.893l-2.366.946c-.315.158-.788.158-.946.473-.316.315-.473.63-.63 1.104-.632.789-1.42 1.735-1.894 2.681-.315.631-.473 1.104-.788 1.735-.316.789-.789 1.577-.947 2.524-.63 1.735-.63 3.627-1.419 5.362-.315.946-.946 1.893-1.42 2.839-.788 1.577-.946 3.47-1.103 5.205-.158.946 0 2.208.157 3.154.158 1.104.158 2.208.158 3.312 0 1.104-.789 2.366-1.42 3.154-.63.789-1.734 1.104-2.523 1.893-.63.63-1.42 1.262-1.735 2.208-.158.316 0 .789 0 1.262-.158.946-.473 1.735-.473 2.681-.158 1.104-.158 2.208-.158 3.47v1.735c0 .63.158 1.104.316 1.577v1.104c0 .473.315.946.315 1.262.316 1.104.473 2.05.631 3.154.158.946.63 1.893.789 2.839.473 1.262.63 2.523.946 3.943.158.946.158 2.05.315 2.996.158.79.316 1.578.316 2.366 0 1.262-.316 2.366-.316 3.628 0 2.05.789 4.1 1.262 6.151.158.631.316 1.104.473 1.735C3.198 99.047.36 87.533.36 75.389c0-14.825 4.258-28.547 11.67-40.06 3.155-4.89 6.783-9.463 11.041-13.406C36.476 8.833 54.929.789 75.117.789c1.577 0 3.312 0 4.89.157 9.778-.157 19.24 2.366 27.757 6.624Z" fill="url(#b)"/><path opacity=".1" fill-rule="evenodd" clip-rule="evenodd" d="M79.691 109.772s6.94 10.251 16.245 18.61 10.567 14.037 10.567 14.037 17.507-7.255 29.967-24.604c12.459-17.191-56.779-8.043-56.779-8.043Z" fill="#000" fill-opacity=".5"/><path opacity=".4" fill-rule="evenodd" clip-rule="evenodd" d="M92.308 2.05A81.014 81.014 0 0 0 79.691.158C78.902.158 77.956 0 77.168 0c1.734.946 3.47 2.681 3.785 4.574.63 3.154 1.735 5.993 2.208 8.99.63 2.996.473 6.782-.947 9.463-.788 1.735-1.892 3.154-3.312 4.574-.946.946-1.892 1.577-2.523 2.838-.63 1.262-1.42 2.366-2.208 3.47-1.104 1.735-2.366 3.47-3.785 5.047-.474.631-.947.947-1.42 1.577-.473.789-.788 1.578-1.42 2.209-1.419 1.419-3.469 2.365-5.204 2.996-2.366.946-4.416 1.893-6.624 3.154-3.154 1.735-5.836 3.786-9.463 3.943-1.262 0-2.524-.157-3.785 0-1.578.158-2.997.789-4.416 1.105-1.262.315-2.682.473-3.943.788-2.208.316-3.943 1.104-5.994 1.577-2.68.631-5.52.473-8.359.947-2.523.315-4.573.63-7.097 0-3.785-.947-5.836-2.682-5.047-6.782.473-2.681.315-4.732-.946-6.624C3.67 50.312 1.62 57.409.674 64.663c1.735.789 3.786 1.104 5.52 1.262 5.52.63 11.514-1.893 16.56-3.785 2.524-.947 5.206-2.366 8.044-2.681 2.997-.316 5.52 0 8.517-.631 10.094-2.524 20.03-5.994 29.178-11.356 3.785-2.208 5.363-5.362 8.044-8.517 2.208-2.839 4.889-5.047 7.57-7.413 2.681-2.365 5.047-4.573 6.624-7.728 1.735-3.312 3.155-7.097 3.943-10.724.789-4.101-.315-7.886-2.366-11.04Zm-.473 10.094c-.157.789-.315 1.735-.473 2.524-.63 2.05-1.892 4.1-3.785 5.047-.789.473-2.05.157-2.524-.631-.315-.473-.315-1.104-.315-1.577-.158-1.104-.316-2.05-.316-3.155 0-2.523 0-5.047-.315-7.57.316 1.42 0-2.208 2.208-3.154 1.104-.474 2.681 0 3.47.788.946 1.104 1.262 2.839 1.577 4.1.316 1.42.631 2.367.473 3.628Z" fill="url(#c)" fill-opacity=".5"/><path opacity=".4" fill-rule="evenodd" clip-rule="evenodd" d="M80.952 131.536c-.157 0-.473.158-.63.158l1.419.158c0-.158-.315-.316-.789-.316Zm0 0c-.157 0-.473.158-.63.158l1.419.158c0-.158-.315-.316-.789-.316ZM147.51 56.62c0 1.893-.631 3.943-.631 5.836 0 2.681-.473 4.732-1.104 7.255-.473 1.735-1.419 2.997-1.892 4.732-.631 1.892-1.577 3.627-2.524 5.362-1.892 3.47-3.943 7.097-4.731 11.04-.789 3.628-.947 6.624-2.681 9.936-1.735 3.155-4.259 5.836-6.151 8.99-.789 1.42-1.42 1.42-2.839 2.366-1.42 1.104-2.839 2.681-4.259 3.785-2.996 2.366-5.835 4.101-9.621 5.52-2.365.947-4.573 1.578-7.097 1.893-1.577.316-3.154 0-4.731.316-2.524.473-4.89 1.104-7.413 1.892-3.943 1.262-8.044 2.05-11.987 3.312-2.838.789-5.52 1.42-8.359 1.893-1.735.315-3.154 1.262-4.889.946-1.735-.315-3.47-.946-5.205-1.577-2.208-.631-4.1-.789-6.466-.789-3.154 0-6.94.473-10.252-.157-3.627-.631-7.097-1.735-10.724-2.366-2.209-.473-3.786-1.42-5.836-2.208-1.893-.946-3.785-1.104-5.836-1.735-2.05-.631-4.1-1.577-6.15-2.05 3.154 4.1 6.781 7.885 10.882 11.198 10.567 8.989 23.658 14.983 38.168 16.875 1.892.158 3.785.473 5.835.473 4.259-.946 8.36-2.208 12.618-3.469 7.097-2.208 13.248-6.467 20.345-8.517 2.681-.789 5.047-1.577 7.413-2.839 1.893-.946 3.785-1.104 5.52-1.893 6.624-2.839 11.513-9.147 14.51-15.456 1.262-2.839 2.524-5.993 5.047-8.201.946-.947 2.208-1.577 2.997-2.681.946-1.104 1.577-2.366 2.523-3.628 1.577-2.05 2.997-4.258 4.416-6.309.158-.315.316-.473.473-.788 1.893-6.624 2.839-13.564 2.839-20.661 0-6.467-.788-12.46-2.208-18.295Zm-68.607 75.39c.316-.158.631-.474.946-.631.316-.158.789 0 1.104.157.631-.157 1.104-.157 1.578.158.315.158.788.473.946.789.158.315 0 .473-.316.788-.315.316-.473.316-.946.316-.788.157-1.577.315-2.523.157-.474 0-1.262-.157-1.578-.473 0-.631.474-.946.79-1.261Zm4.89 9.778c-.474.631-.947 1.262-1.578 1.577-.63.473-1.262.631-1.735 1.104-1.577.789-3.154 1.735-4.731 2.208-.631.158-1.42.158-2.05.158-.79.158-1.735.158-2.524.158-.946 0-2.05.157-2.997.315-.946 0-2.05.158-2.996.158-1.735.158-3.155-.158-4.732-.789-1.42-.473-2.839-1.261-4.1-2.05-.947-.631-1.735-1.419-2.366-2.208-.789-.631-1.262-1.42-1.735-2.366-.158-.315-.316-.631-.158-1.104 0-.158.158-.315.158-.315.315-.158.63-.473.788-.473.474-.316 1.104-.316 1.735-.474 1.42-.157 2.84 0 4.259.158.788 0 1.577.158 2.365 0 1.104-.158 2.208-.473 3.155-.788 2.523-.631 5.047-1.262 7.57-1.42 2.524-.315 5.363-.631 7.886-.158.946.158 2.208.473 2.997.947a4.928 4.928 0 0 1 1.42 1.735c.472 1.261.157 2.523-.632 3.627Zm19.872-6.466c-.473.473-1.104.788-1.735 1.261-.789.631-1.577.947-2.366 1.42-.63.473-1.42.788-2.05 1.104-.789.315-1.42.631-2.208 1.104l-2.366.946c-.63.158-1.262.473-1.893.316-.473-.158-1.104-.316-1.42-.631-.63-.631-.472-1.262-.315-1.577 0-.474-.157-1.262 0-1.893.158-.315.474-.789.631-1.104.631-1.262 1.578-2.05 2.524-2.997.788-.788 1.735-1.419 2.839-1.892 1.261-.473 2.839-.631 4.1-.789 1.42-.158 3.943-.315 4.732 1.42.473 1.104.315 2.208-.473 3.312Zm-21.765-3.628c-.158 0-.473-.158-.789-.315-.158 0-.473.157-.63.157l1.419.158Z" fill="url(#d)" fill-opacity=".5"/><path opacity=".4" fill-rule="evenodd" clip-rule="evenodd" d="M141.517 40.69v.316c-.158 2.05-.947 3.47-1.735 5.363-.631 1.577-1.262 2.839-2.051 4.258-1.261 2.366-1.892 4.574-2.838 7.255-1.578 3.943-2.209 8.202-4.574 11.829-2.051 3.312-2.682 7.255-4.259 10.725-1.892 3.943-4.889 6.624-8.043 9.463-1.42 1.262-2.681 2.839-3.943 4.258-1.42 1.42-2.366 3.312-4.101 4.574-3.47 2.524-7.413 4.732-10.882 7.413-2.05 1.577-3.47 3.785-5.836 5.047-2.208 1.419-4.731 2.365-6.94 3.627-2.05 1.262-4.1 2.524-6.308 3.47-2.524.946-4.574.631-7.255.789-2.84.157-5.836.946-8.517 1.892-2.208.789-4.1 1.577-6.466.789-1.578-.473-2.84-1.577-4.417-1.893-3.785-.788-7.885 0-11.67-.158-2.997-.157-6.152-.788-9.148-1.419-2.84-.473-5.205-2.523-7.886-3.312-3.47-.946-7.413-.158-10.567-1.419-1.42-.474-2.681-1.578-3.785-2.366-.316-.158-.474-.316-.79-.473-.472-.789-.945-1.735-1.419-2.524.79.316 1.578.631 2.366 1.104 4.259 2.05 9.621 1.735 14.195 2.524 5.204.946 10.41 2.208 15.614 2.839 2.208.315 4.258.157 6.466 0 2.997-.316 5.994-.316 8.99-.789 5.047-.946 10.094-3.312 15.299-2.681.946.157 2.05.631 2.996.631 1.42 0 2.524-1.262 3.628-2.051 2.05-1.261 4.258-1.104 6.151-2.839 1.735-1.735 3.785-2.839 5.993-3.943 5.678-2.839 10.252-7.57 14.826-12.144 3.785-3.785 7.412-7.728 9.936-12.302 2.523-4.574 2.05-10.094 3.943-14.825 1.419-3.47 2.523-6.624 4.731-9.621 1.104-1.42 2.366-2.681 3.47-4.1 1.262-1.42 1.893-2.997 2.839-4.732.946-1.893 2.366-3.47 3.154-5.52.789-1.893.631-3.47.631-5.52v-6.467c3.312 4.574 5.994 8.674 8.202 12.933Z" fill="url(#e)" fill-opacity=".5"/><path opacity=".4" fill-rule="evenodd" clip-rule="evenodd" d="M129.687 23.815c-.788-.788-1.577-1.735-2.366-2.523-5.677-5.678-12.302-10.252-19.557-13.88-.157-.157-.315-.157-.63-.315l-3.313-1.42c-1.577-.63-2.996-1.26-4.573-1.734.473.315 1.104.63 1.261.63.947.474 1.735.79 2.366 1.578.631.789.946 1.42.946 2.524 0 .946.158 2.05.316 2.996.158.947.631 1.735.789 2.681.157.473.157.947.315 1.578.315 1.261.789 2.523 1.104 3.785.473 2.366-.789 4.258-1.577 6.308-1.262 3.313-2.051 6.625-3.155 10.094-.788 2.682-2.208 5.363-4.258 7.413-2.05 1.893-5.047 2.366-6.782 4.416-1.577 1.893-3.47 3.628-5.678 4.574-2.523 1.262-5.362 2.208-8.043 2.997-1.893.63-3.943.63-5.993 1.104-2.524.63-4.732 1.892-6.94 2.839-2.524 1.104-4.732 2.365-7.255 3.47-2.524 1.103-4.732 2.523-7.255 3.47-1.262.472-2.524.788-3.628 1.103-2.523.947-4.889 2.524-7.57 2.84-.946.157-1.893.315-2.839.315-.789 0-1.42.157-2.05.315-2.366.946-3.786 3.47-6.467 3.627-2.523 0-4.889-.157-7.255.158-1.262.158-2.366 0-3.47.158-.315 0-.788.158-1.104 0-.315-.158-.788-.473-1.261-.789-.947-.473-1.735-1.104-2.524-1.734-1.577-1.262-3.627-.474-5.362-.947-.473-.158-1.262 0-1.735-.315C3.04 70.5 1.62 69.08.674 68.29.516 70.343.36 72.394.36 74.444c0 3.627.315 7.097.788 10.567.158 1.577.473 3.154.789 4.89a81.206 81.206 0 0 0 1.735 6.623c.946 2.997 2.05 5.994 3.312 8.832 2.05.316 4.1.631 6.15.316 2.997-.473 5.836-.946 8.833-.789 2.839.158 5.362 1.104 8.044 1.577 2.996.474 6.15.947 9.305 1.105 2.839.157 5.678.473 8.359.788 2.05.316 4.258.631 6.309.789 5.52.315 10.882-1.104 16.245-1.577 2.68-.316 5.362-.947 8.043-1.578 1.577-.315 3.155-.788 4.574-1.735 1.893-1.261 3.154-2.996 4.732-4.416 1.892-1.577 3.785-3.154 5.677-4.573 1.578-1.262 3.155-2.682 4.89-3.786a58.209 58.209 0 0 0 3.943-2.68c2.365-1.894 4.416-4.102 6.466-6.467 2.839-3.312 3.943-7.886 5.047-11.987 1.104-3.785 1.735-7.413 3.785-10.882a20.177 20.177 0 0 0 2.208-5.363c.316-1.104.473-2.523.947-3.627.788-1.735 2.523-3.155 3.469-4.732.789-1.262 1.735-2.523 2.208-4.1 1.104-2.84 1.893-5.678 2.366-8.833.316-2.208 1.104-4.416 1.735-6.624.158-.315.158-.788.315-1.104 0-.158-.473-.788-.946-1.262ZM32.375 74.916c.158-.316 2.997-1.42 3.313-1.577h-.158l-1.893.788c2.05-.63 5.678 1.42 3.943 3.628-.473.63-1.892.946-2.681 1.104-.789.158-1.262-.158-1.735-.789-.473-.63-.789-1.577-.789-2.365v-.789Zm-22.238 20.03c-2.208-.63-3.627-1.42-4.89-3.312-.945-1.262-1.576-2.366-1.892-3.785-.157-1.262-.63-2.208-.315-3.47.158-.946.63-2.05 1.104-2.839.473-.946 1.262-2.05 1.262-2.366 2.208-.157 4.258-.315 6.308-.315 2.366 0 4.89.315 7.255.315 1.104 0 2.208 0 3.313-.157 1.104-.158 2.05-.474 3.154-.631 1.892-.316 3.627-.473 5.362.315 1.262.631 1.893 2.208 2.524 3.47.315.788.63 1.262.63 2.208 0 1.104 0 2.05-.157 2.997 0 .315-.158.788-.158 1.104-1.577 3.312-5.678 4.416-8.832 5.677-4.732 1.893-9.936 2.05-14.668.79Zm33.594 7.255c-.946 2.524-5.047 3.312-7.413 3.47-1.104 0-2.523-.158-3.627-.789-.631-.315-1.104-.946-1.577-1.577-.316-.473-.789-1.262-2.05-.946.315-1.42.63-2.681 1.261-3.943.473-.631 1.104-1.104 1.735-1.735 1.104-.946 2.366-1.893 3.627-2.523 2.05-1.105 4.259-.316 6.151.63 1.42.631 2.366 1.578 2.682 2.997.473 1.735-.158 2.839-.789 4.416Zm27.758-.473c-.788 1.735-1.892 2.208-3.47 3.154-1.892.947-4.416 1.735-6.466 1.735-1.104 0-2.208-.473-3.154-.946-.631-.316-1.42-.473-1.893-.946-1.42-1.42-1.735-3.312-.788-2.997-.631-1.262-.947-2.523-1.104-3.785a.867.867 0 0 0 .473-.789c.788-1.42 2.208-2.681 3.785-3.47 2.523-1.42 5.835-1.734 8.674-.473 1.262.473 2.05 1.104 2.84 2.05.473.474.946.79 1.419 1.42.473 1.262.157 3.628-.316 5.047Zm8.36-.315c-.474.315-1.262.946-1.736.946-.473-.158-1.261-.946-1.261-1.577l-.316-.316c.631-1.104 1.262-2.05 1.893-3.154.946.473 1.892.315 2.523 1.42.789 1.103-.315 2.05-1.104 2.681Zm21.291-49.682c-.788 1.105-1.892 2.209-3.154 2.682-1.577.63-3.785 1.261-3.943-1.262 0-1.42.158-2.524.789-3.785.946-1.893 1.735-2.366 3.627-3.312.631 0 1.42.315 1.893.473.946.315 1.892 1.261 2.05 2.365.158 1.105-.631 2.05-1.262 2.84Zm19.715-10.567c-.789 2.524-1.893 4.89-2.997 7.098-1.261 2.839-1.419 5.835-2.208 8.832-.315 1.735-1.261 3.627-2.839 4.258-.788.316-1.419.158-2.208.158-.788 0-2.05.315-2.05.946-.473-1.262-1.104-2.839-1.419-4.1-.316-1.42-.474-2.997-.631-4.574-.316-1.577-.316-3.155-.473-4.732-.158-1.42-.474-2.996-.474-4.416 0-4.89 2.839-11.04 7.413-13.248 1.42-.631 2.839-.947 4.416-.789 1.735.316 2.839.789 3.628 2.524.946 2.365.473 5.52-.158 8.043Z" fill="url(#f)" fill-opacity=".5"/><path opacity=".4" fill-rule="evenodd" clip-rule="evenodd" d="M99.09 45.738c-.158.158-.473.158-.63.316-.474 0-.79-.158-1.105 0l1.735-.316Z" fill="url(#g)" fill-opacity=".5"/><path opacity=".4" fill-rule="evenodd" clip-rule="evenodd" d="M5.249 79.174h-.316c.316-.157.316-.157.316 0Z" fill="url(#h)" fill-opacity=".5"/><path opacity=".3" fill-rule="evenodd" clip-rule="evenodd" d="M32.376 136.268s6.782 2.524 11.671 1.104c0 0 1.893-15.929-4.1-26.181-5.994-10.252-16.246 5.205-16.246 5.205l-2.365 9.778s5.678 6.782 11.04 10.094Z" fill="#000" fill-opacity=".5"/><path fill-rule="evenodd" clip-rule="evenodd" d="M15.816 139.738c.157.158.315.316.315.631-.316 0-.316-.158-.316-.473 0-.316.158-.158.316-.473h.158l-.474.315Z" fill="#0EDBFF"/><defs><linearGradient id="b" x1=".22" y1="54.204" x2="107.704" y2="54.204" gradientUnits="userSpaceOnUse"><stop offset=".011" stop-color="#001218"/><stop offset=".322"/><stop offset=".551"/><stop offset=".752"/><stop offset=".938"/><stop offset="1"/></linearGradient><linearGradient id="c" x1=".901" y1="33.055" x2="94.871" y2="33.055" gradientUnits="userSpaceOnUse"><stop stop-color="#B8C2FF"/><stop offset="1" stop-color="#7D72B3"/></linearGradient><linearGradient id="d" x1="16.152" y1="103" x2="149.66" y2="103" gradientUnits="userSpaceOnUse"><stop stop-color="#B8C2FF"/><stop offset="1" stop-color="#7D72B3"/></linearGradient><linearGradient id="e" x1="8.267" y1="75.385" x2="141.507" y2="75.385" gradientUnits="userSpaceOnUse"><stop stop-color="#B8C2FF"/><stop offset="1" stop-color="#7D72B3"/></linearGradient><linearGradient id="f" x1=".223" y1="56.766" x2="131.192" y2="56.766" gradientUnits="userSpaceOnUse"><stop stop-color="#B8C2FF"/><stop offset="1" stop-color="#7D72B3"/></linearGradient><linearGradient id="g" x1="97.251" y1="45.97" x2="99.049" y2="45.97" gradientUnits="userSpaceOnUse"><stop stop-color="#E8DDFF"/><stop offset="1" stop-color="#AA8AD8"/></linearGradient><linearGradient id="h" x1="4.908" y1="79.191" x2="5.281" y2="79.191" gradientUnits="userSpaceOnUse"><stop stop-color="#E8DDFF"/><stop offset="1" stop-color="#AA8AD8"/></linearGradient><radialGradient id="a" cx="0" cy="0" r="1" gradientUnits="userSpaceOnUse" gradientTransform="translate(28.665 39.754) scale(120.026)"><stop offset=".006" stop-color="#B1B8BE"/><stop offset=".094" stop-color="#C0C8CB"/><stop offset=".211" stop-color="#C0CAC9"/><stop offset=".345" stop-color="#B7C0C7"/><stop offset=".49" stop-color="#BCC6C7"/><stop offset=".644" stop-color="#959EA3"/><stop offset=".684" stop-color="#4C535D"/><stop offset=".743" stop-color="#636A74"/><stop offset=".828" stop-color="#3C4451"/><stop offset=".929" stop-color="#2E353F"/><stop offset="1" stop-color="#283039"/></radialGradient></defs></svg>