<svg width="814" height="574" viewBox="0 0 814 574" fill="none" xmlns="http://www.w3.org/2000/svg">
<g filter="url(#filter0_d_13_27)">
<path d="M637.934 423.963C639.03 421.948 640.123 419.881 641.189 417.843C650.002 417.978 658.559 417.945 666.827 417.741C737.715 416.112 780.498 403.32 784.247 382.656L637.934 423.963ZM637.934 423.963C637.847 423.962 637.759 423.961 637.672 423.959L637.664 424.459L638.103 424.699C638.145 424.622 638.187 424.545 638.229 424.468C642.492 424.53 646.725 424.561 650.899 424.561C656.315 424.561 661.699 424.493 666.923 424.391C720.121 423.204 784.728 415.196 790.4 383.912C796.072 352.627 738.868 319.849 689.901 297.862L637.934 423.963ZM672.448 282.22V282.55L672.752 282.68C717.101 301.571 752.675 321.306 776.419 340.394C788.291 349.939 797.186 359.305 802.745 368.304C808.303 377.3 810.51 385.897 809.072 393.933C807.517 402.467 801.93 409.974 792.706 416.414C783.479 422.856 770.647 428.204 754.688 432.416C722.773 440.84 678.463 444.691 625.784 443.741L625.509 443.736L625.358 443.965C614.484 460.388 602.044 475.423 588.293 488.866C588.053 489.075 587.816 489.31 587.598 489.524C587.491 489.63 587.389 489.731 587.294 489.822L587.284 489.831L587.275 489.841L587.227 489.892L587.221 489.898L587.218 489.901L587.215 489.904L587.212 489.908L587.211 489.909L587.21 489.91L587.209 489.91L587.209 489.911L587.206 489.914L587.205 489.915L587.205 489.916L587.204 489.916L587.204 489.916L587.203 489.917L587.179 489.943L587.131 489.993L587.092 490.035C587.09 490.037 587.089 490.038 587.087 490.04C586.479 490.65 585.877 491.254 585.276 491.823L585.269 491.829C584.376 492.708 583.482 493.553 582.584 494.401L582.584 494.402C581.974 494.98 581.371 495.551 580.768 496.088L580.761 496.095C579.74 497.04 578.687 497.987 577.63 498.936C577.538 499.014 577.447 499.094 577.357 499.173C577.207 499.306 577.061 499.439 576.918 499.57C576.685 499.783 576.459 499.989 576.227 500.185L576.218 500.193C573.057 503 569.862 505.672 566.571 508.311C566.273 508.522 565.978 508.765 565.7 508.994L565.696 508.998C564.991 509.54 564.295 510.082 563.601 510.623C562.903 511.166 562.207 511.708 561.504 512.25L561.494 512.258L561.486 512.265C561.173 512.53 560.869 512.73 560.478 513.031C559.264 513.966 558.05 514.85 556.809 515.754C556.617 515.894 556.424 516.035 556.23 516.176C556.125 516.25 556.03 516.324 555.943 516.39C555.854 516.459 555.774 516.52 555.688 516.581L555.652 516.607L555.616 516.632L555.58 516.658L555.571 516.664L555.566 516.667L555.565 516.668L555.564 516.668L555.564 516.669L555.563 516.669L555.562 516.67L555.544 516.683L555.399 516.785L555.398 516.786C553.156 518.379 550.885 519.971 548.615 521.495L548.592 521.51L548.571 521.528C548.517 521.574 548.452 521.619 548.363 521.676C548.325 521.7 548.281 521.728 548.234 521.758C548.181 521.793 548.124 521.83 548.068 521.87C545.857 523.328 543.654 524.782 541.42 526.167L541.415 526.17C541.225 526.291 541.074 526.4 540.904 526.49L540.888 526.498L540.873 526.508C538.604 527.929 536.303 529.282 533.995 530.64L533.986 530.646C533.806 530.757 533.616 530.861 533.414 530.973C533.218 531.081 533.009 531.196 532.806 531.321C530.471 532.675 528.14 533.994 525.778 535.244L525.776 535.245C503.099 547.369 478.599 556.174 452.789 561.016C442.842 562.879 432.703 564.165 422.403 564.843L422.4 564.843C366.912 568.873 309.215 554.517 257.299 517.634L257.295 517.631C255.252 516.212 253.24 514.724 251.224 513.199C250.854 512.91 250.485 512.63 250.119 512.351L250.117 512.35C249.748 512.07 249.383 511.792 249.018 511.506L249.011 511.501C247.894 510.657 246.777 509.778 245.691 508.899L245.687 508.896C203.303 475.298 173.456 431.402 156.372 383.303L156.37 383.296C155.606 381.242 154.906 379.152 154.202 377.053C154.177 376.954 154.142 376.87 154.121 376.819C154.096 376.756 154.086 376.73 154.08 376.705L154.075 376.682L154.068 376.66C152.437 371.819 150.965 366.908 149.589 361.927L149.587 361.918L149.584 361.91C149.558 361.828 149.538 361.744 149.514 361.64C149.491 361.543 149.464 361.428 149.427 361.31C148.787 358.938 148.149 356.538 147.574 354.139L147.57 354.122L147.565 354.106C147.476 353.822 147.416 353.568 147.353 353.271L147.351 353.259C146.773 350.814 146.198 348.378 145.687 345.942L145.682 345.918L145.674 345.894C145.649 345.814 145.622 345.7 145.589 345.56C145.462 344.987 145.334 344.381 145.206 343.77L145.152 343.513L144.91 343.412C99.4394 324.317 62.9126 304.301 38.5155 284.92C26.3164 275.229 17.1708 265.713 11.452 256.569C5.73458 247.428 3.46166 238.692 4.93893 230.53L4.93897 230.53C7.70489 215.205 23.4791 203.189 49.7975 194.776C76.0706 186.378 112.654 181.638 156.649 180.722L156.991 180.715L157.108 180.394C174.831 131.787 205.733 87.4516 249.91 53.7514L249.942 53.7265L249.946 53.723L249.965 53.7128L249.991 53.6944C250.195 53.5506 250.258 53.4945 250.323 53.4256C250.386 53.3587 250.471 53.2921 250.546 53.2528L250.582 53.2338L250.614 53.2092C302.658 13.7186 361.315 -2.26277 418.018 0.886401L418.022 0.886582C481.54 3.93429 538.729 30.3472 582.745 71.8031L582.748 71.8061C630.442 115.937 663.937 178.461 671.008 253.256L671.008 253.259C671.968 262.81 672.448 272.464 672.448 282.22ZM149.171 204.101H149.546L149.651 203.742C149.796 203.246 149.933 202.751 150.069 202.26L150.07 202.259C150.206 201.766 150.341 201.278 150.484 200.79C150.484 200.79 150.484 200.79 150.484 200.79L150.005 200.649L149.525 200.508C149.525 200.509 149.525 200.509 149.525 200.509L149.092 201.984L148.659 203.461L148.472 204.101H149.139H149.171ZM142.07 239.951L142.071 239.945C143.767 228.191 146.166 216.675 149.237 205.395L149.415 204.742L148.739 204.764C127.155 205.46 109.656 207.608 97.2388 211.244C91.0307 213.061 86.0645 215.258 82.4888 217.852C78.9096 220.449 76.6919 223.468 76.0609 226.924L76.0607 226.925C75.4217 230.459 76.4793 234.214 79.0042 238.116C81.528 242.016 85.542 246.101 90.8965 250.327C101.607 258.779 117.769 267.858 138.39 277.178L139.073 277.487L139.096 276.738L139.144 275.16L139.192 273.583L139.192 273.575V273.567C139.192 273.089 139.192 272.597 139.223 272.142L139.223 272.132L139.224 272.122C139.286 269.818 139.409 267.545 139.533 265.234L139.543 265.05C139.543 265.049 139.543 265.048 139.544 265.047C139.575 264.574 139.607 264.136 139.639 263.696L139.64 263.687C139.768 261.353 139.959 258.984 140.152 256.643L140.153 256.622V256.602C140.153 256.602 140.153 256.597 140.155 256.584C140.157 256.57 140.159 256.554 140.163 256.527C140.165 256.513 140.169 256.494 140.172 256.472C140.178 256.43 140.184 256.377 140.185 256.32C140.377 253.89 140.632 251.459 140.919 249.026L140.92 249.016L140.921 249.006C140.936 248.816 140.959 248.631 140.983 248.434L140.983 248.431C141.007 248.24 141.032 248.038 141.049 247.825C141.304 245.394 141.623 242.961 141.974 240.56C141.974 240.559 141.975 240.558 141.975 240.557L142.022 240.257L142.034 240.18L142.037 240.161L142.04 240.142L142.046 240.104L142.058 240.028L142.061 240.009L142.063 239.999L142.064 239.99L142.07 239.951ZM672.055 308.226L671.416 307.953L671.36 308.646C669.184 335.577 663.553 360.948 655.076 384.523L654.835 385.192L655.547 385.192C681.776 385.175 703.189 383.351 718.392 379.677C725.991 377.84 732.069 375.535 736.426 372.74C740.784 369.945 743.469 366.627 744.168 362.76C744.857 358.958 743.577 354.901 740.615 350.68C737.652 346.458 732.974 342.021 726.764 337.427C714.34 328.236 695.688 318.344 672.055 308.226ZM35.6495 230.487L35.6495 230.487C34.2 238.481 36.7774 246.528 42.1528 254.409C47.5267 262.288 55.7242 270.042 65.6043 277.483C85.3663 292.366 111.958 306.067 136.469 317.048L136.473 317.05C137.753 317.626 139.035 318.203 140.35 318.78L141.134 319.125L141.048 318.273C140.968 317.473 140.879 316.665 140.791 315.859C140.703 315.053 140.615 314.249 140.535 313.454L140.535 313.452C140.488 312.999 140.448 312.545 140.408 312.087L140.408 312.085C140.368 311.628 140.327 311.166 140.279 310.704L140.232 310.256H139.855C139.841 310.25 139.827 310.244 139.813 310.238C139.744 310.209 139.679 310.182 139.618 310.157C139.512 310.114 139.417 310.075 139.315 310.029L139.313 310.028C106.708 295.378 81.619 280.91 65.1588 267.538C56.9281 260.851 50.8751 254.455 47.1149 248.465C43.355 242.475 41.9108 236.932 42.8185 231.921C43.687 227.126 46.731 222.725 51.896 218.773C57.0635 214.819 64.3253 211.337 73.5563 208.387C92.0175 202.486 118.253 198.739 151.081 197.518L151.44 197.505L151.541 197.16C152.214 194.888 152.885 192.654 153.62 190.422L153.844 189.743L153.128 189.766C127.19 190.632 99.2543 193.212 77.1084 199.34C66.0362 202.404 56.3812 206.362 49.1421 211.458C41.8985 216.557 37.042 222.82 35.6495 230.487ZM139.91 312.13C139.95 312.588 139.99 313.046 140.038 313.504L139.109 310.484C139.26 310.553 139.398 310.607 139.54 310.666C139.608 310.694 139.677 310.723 139.749 310.756H139.782C139.83 311.214 139.87 311.672 139.91 312.13ZM666.933 424.891L666.934 424.891C693.545 424.297 723.042 421.997 746.608 415.922C758.391 412.885 768.722 408.896 776.474 403.683C784.23 398.467 789.442 391.997 790.892 384.001C792.341 376.007 789.764 367.96 784.389 360.078C779.016 352.199 770.819 344.444 760.941 337.001C741.183 322.114 714.6 308.404 690.105 297.406L690.105 297.406C684.558 294.927 678.882 292.449 673.045 290.004L672.375 289.723L672.352 290.449C672.288 292.452 672.224 294.484 672.128 296.481L672.127 296.493V296.505C672.127 296.661 672.12 296.828 672.112 297.008L672.111 297.015C672.104 297.189 672.095 297.376 672.095 297.557V297.888L672.401 298.017C677.462 300.154 682.425 302.29 687.227 304.459L687.228 304.46C719.85 319.11 744.947 333.578 761.411 346.95C769.643 353.637 775.698 360.033 779.458 366.023C783.219 372.013 784.663 377.556 783.755 382.567C782.848 387.567 779.573 392.14 773.992 396.223C768.409 400.308 760.554 403.874 750.571 406.858C730.607 412.824 702.239 416.427 666.815 417.241C658.553 417.445 650.004 417.478 641.197 417.343L640.889 417.338L640.746 417.611C639.593 419.815 638.409 422.052 637.225 424.22L636.828 424.947L637.656 424.959C642.113 425.027 646.538 425.061 650.899 425.061C656.319 425.061 661.707 424.993 666.933 424.891Z" fill="url(#paint0_radial_13_27)" stroke="black"/>
<path d="M281.86 100.407L281.893 100.382L281.896 100.378L281.905 100.374L281.921 100.363C282.02 100.301 282.098 100.241 282.161 100.175C282.189 100.145 282.209 100.119 282.222 100.102C282.274 100.049 282.302 100.039 282.3 100.04L282.374 100.014L282.436 99.9665C420.769 -5.00958 618.416 98.3725 618.416 283.034C618.416 464.445 426.811 568.845 287.711 469.961L287.422 470.368L287.711 469.961C164.894 382.716 161.567 192.156 281.86 100.407Z" fill="url(#paint1_radial_13_27)" stroke="black"/>
<path d="M315.254 283.081C315.395 284.581 314.909 285.657 313.914 286.453C312.885 287.277 311.273 287.83 309.123 288.136C304.83 288.748 298.665 288.342 291.538 287.513C287.351 287.026 282.839 286.392 278.203 285.742C267.126 284.188 255.342 282.534 245.601 282.534C240.987 282.534 236.305 282.758 231.656 283.011C230.857 283.055 230.06 283.099 229.264 283.143C225.422 283.357 221.614 283.569 217.886 283.671C209.02 283.913 200.672 283.527 193.514 281.084C193.672 259.963 196.611 239.539 201.898 220.206C209.222 219.323 221.652 221.674 240.284 237.002C257.219 250.939 275.72 259.247 290.111 265.709L290.182 265.74C297.396 268.98 303.544 271.743 307.971 274.521C312.422 277.314 314.965 280.02 315.254 283.081Z" fill="url(#paint2_linear_13_27)" stroke="black"/>
<path d="M390.015 305.908L390.016 305.907C390.701 305.178 391.822 304.628 393.397 304.261C394.965 303.896 396.929 303.725 399.239 303.714C403.86 303.692 409.781 304.309 416.512 305.22C420.694 305.787 425.187 306.467 429.865 307.174C440.214 308.741 451.468 310.444 462.26 311.356C466.6 311.726 469.781 312.405 472.61 313.055C472.888 313.119 473.162 313.182 473.435 313.245C475.933 313.823 478.234 314.356 480.889 314.575C486.794 315.063 494.397 314.001 510.053 308.685C525.575 303.425 538.268 306.055 548.645 312.125C559.045 318.209 567.135 327.759 573.389 336.363C574.934 338.487 575.672 340.217 575.757 341.597C575.838 342.933 575.312 343.994 574.162 344.846C572.983 345.719 571.146 346.371 568.646 346.788C566.155 347.204 563.055 347.38 559.39 347.339C544.719 347.174 521.271 343.535 492.453 338.224L492.453 338.224C466.367 333.425 439.147 326.796 419.237 320.543C409.277 317.415 401.169 314.388 395.949 311.739C393.329 310.41 391.486 309.2 390.493 308.151C389.995 307.626 389.755 307.187 389.694 306.836C389.639 306.519 389.72 306.22 390.015 305.908Z" fill="url(#paint3_linear_13_27)" stroke="black"/>
<path d="M194.78 308.137C205.663 312.558 224.048 320.941 252.862 336.542L252.862 336.542C266.391 343.858 286.094 350.495 308.003 356.646C327.693 362.174 349.197 367.318 369.652 372.211C371.966 372.765 374.266 373.315 376.549 373.862C399.023 379.25 419.786 384.343 434.93 389.332C442.505 391.827 448.645 394.287 452.883 396.732C455.002 397.954 456.622 399.159 457.706 400.344C458.789 401.527 459.304 402.652 459.304 403.728C459.304 404.397 458.962 404.943 458.157 405.392C457.327 405.855 456.055 406.18 454.342 406.358C450.926 406.714 445.965 406.471 439.832 405.823C430.673 404.855 418.993 402.996 406.121 400.948C401.767 400.255 397.277 399.54 392.702 398.831C374.613 396.027 355.214 393.311 337.746 392.378C320.299 391.445 304.696 392.285 294.248 396.65C286.514 399.878 280.094 402.872 274.526 405.519C273.535 405.99 272.572 406.45 271.633 406.898C267.292 408.969 263.48 410.789 259.923 412.302C251.363 415.942 244.34 417.779 235.205 416.992C213.428 385.89 199.008 348.638 194.78 308.137Z" fill="url(#paint4_linear_13_27)" stroke="black"/>
<path d="M482.539 469.561L482.539 469.561C477.492 467.672 470.49 465.417 462.902 462.973C462.46 462.831 462.016 462.688 461.57 462.544C453.465 459.933 444.786 457.12 437.126 454.308C429.454 451.491 422.848 448.691 418.867 446.114C416.859 444.814 415.613 443.629 415.171 442.601C414.96 442.109 414.941 441.673 415.09 441.266C415.244 440.846 415.599 440.396 416.251 439.933C418.964 438.016 423.241 436.864 428.881 436.203C434.506 435.543 441.408 435.378 449.311 435.381C453.068 435.382 457.05 435.42 461.224 435.461C474.592 435.591 489.93 435.74 506.174 434.731L506.174 434.731C531.288 433.145 547.631 437.592 556.76 441.467C540.804 458.518 522.251 472.867 501.835 483.805C501.252 483.248 500.668 482.684 500.079 482.115C495.166 477.367 489.968 472.344 482.539 469.561Z" fill="url(#paint5_linear_13_27)" stroke="black"/>
<path d="M489.078 407.514C488.336 405.624 488.332 403.956 488.879 402.499C489.43 401.032 490.56 399.726 492.178 398.61C495.425 396.371 500.533 394.969 506.364 394.581C512.183 394.195 518.662 394.824 524.609 396.591C530.56 398.36 535.942 401.258 539.611 405.383C542.092 408.174 543.122 410.35 543.169 412.002C543.213 413.59 542.347 414.816 540.649 415.748C538.933 416.689 536.429 417.285 533.389 417.573C530.36 417.859 526.843 417.836 523.132 417.569C515.708 417.035 507.551 415.53 501.044 413.623C497.789 412.669 494.963 411.618 492.853 410.546C491.798 410.01 490.935 409.475 490.29 408.953C489.639 408.425 489.247 407.94 489.078 407.514Z" fill="url(#paint6_linear_13_27)" stroke="black"/>
<path d="M358.228 429.391L358.228 429.391C363.757 430.688 368.686 433.953 372.076 437.709C375.488 441.491 377.244 445.653 376.663 448.729C376.619 448.961 376.454 449.209 376.062 449.459C375.666 449.71 375.086 449.93 374.319 450.106C372.788 450.459 370.637 450.613 368.057 450.591C362.907 450.547 356.163 449.803 349.523 448.643C342.883 447.484 336.375 445.914 331.694 444.229C329.347 443.384 327.494 442.522 326.314 441.687C325.722 441.269 325.334 440.88 325.127 440.535C324.93 440.206 324.91 439.942 325 439.702L325.001 439.701C326.186 436.548 329.85 432.88 335.582 430.542C341.293 428.213 349.014 427.225 358.228 429.391Z" fill="url(#paint7_linear_13_27)" stroke="black"/>
<path d="M350.715 315.345L350.715 315.345C356.935 316.989 361.245 319.036 364.028 321.216C366.807 323.393 368.037 325.678 368.183 327.819C368.329 329.964 367.396 332.073 365.629 333.912C363.863 335.75 361.284 337.292 358.223 338.273C355.183 339.235 351.033 339.407 346.481 338.974C341.938 338.543 337.04 337.516 332.528 336.117C328.013 334.717 323.91 332.951 320.946 331.056C319.463 330.108 318.285 329.139 317.483 328.183C316.679 327.224 316.284 326.318 316.284 325.482C316.284 323.738 317.53 322.002 319.805 320.405C322.062 318.821 325.224 317.454 328.801 316.428C335.962 314.373 344.63 313.73 350.715 315.345Z" fill="url(#paint8_linear_13_27)" stroke="black"/>
<path d="M366.297 347.746L366.296 347.745C365.189 345.994 365.707 344.085 367.027 342.617C368.361 341.132 370.394 340.247 372.036 340.531C373.888 340.861 375.179 341.287 376.033 341.753C376.888 342.219 377.247 342.694 377.355 343.102C377.462 343.505 377.358 343.972 376.996 344.505C376.633 345.04 376.042 345.589 375.288 346.108C373.783 347.144 371.736 347.987 369.926 348.327C369.021 348.497 368.204 348.535 367.559 348.426C366.911 348.318 366.504 348.075 366.297 347.746Z" fill="url(#paint9_linear_13_27)" stroke="black"/>
<path d="M489.065 386.277C487.24 382.394 487.804 379.72 489.526 378.281C491.307 376.795 494.542 376.42 498.493 377.67C501.603 378.656 503.808 379.653 505.29 380.617C506.782 381.588 507.483 382.486 507.7 383.249C507.907 383.978 507.7 384.69 507.1 385.393C506.489 386.108 505.496 386.776 504.239 387.341C501.73 388.47 498.322 389.122 495.32 389.004C493.82 388.946 492.448 388.695 491.351 388.235C490.255 387.776 489.469 387.123 489.065 386.277Z" fill="url(#paint10_linear_13_27)" stroke="black"/>
<path d="M557.151 418.661L557.152 418.662C559.65 421.299 560.65 423.104 560.822 424.264C560.905 424.82 560.794 425.198 560.597 425.466C560.393 425.744 560.052 425.964 559.569 426.11C558.593 426.405 557.206 426.34 555.879 426.02C554.543 425.697 553.405 425.148 552.879 424.591L552.879 424.591L552.877 424.589C552.369 424.058 552.102 423.171 552.107 422.128C552.111 421.095 552.382 419.992 552.849 419.112C553.322 418.221 553.949 417.641 554.62 417.492C555.259 417.35 556.115 417.564 557.151 418.661Z" fill="url(#paint11_linear_13_27)" stroke="black"/>
<path d="M395.741 490.359C413.516 499.334 428.386 503.44 440.154 505.073C429.025 506.989 417.587 507.973 405.964 507.973C362.563 507.973 322.179 494.192 288.552 470.521C313.571 463.363 354.613 469.69 395.741 490.359Z" fill="url(#paint12_linear_13_27)" stroke="black"/>
<path d="M446.555 488.624C446.555 488.547 446.555 488.472 446.555 488.396C446.554 487.467 446.554 486.573 446.632 485.735C446.717 484.83 446.891 484.03 447.233 483.363C447.569 482.708 448.074 482.166 448.858 481.781C449.652 481.391 450.757 481.15 452.304 481.15C454.764 481.15 456.391 481.807 457.033 482.893C457.659 483.952 457.509 485.709 455.677 488.335C453.876 490.855 451.531 491.748 449.693 491.599C447.845 491.449 446.555 490.281 446.555 488.624Z" fill="url(#paint13_linear_13_27)" stroke="black"/>
<path d="M435.936 485.112L435.937 485.112C437.722 485.427 438.759 486.122 439.307 486.898C439.855 487.674 439.963 488.601 439.756 489.485C439.547 490.374 439.022 491.186 438.357 491.695C437.698 492.198 436.936 492.384 436.193 492.123C434.644 491.561 434.038 489.773 434.191 487.975C434.266 487.095 434.522 486.298 434.874 485.763C435.23 485.222 435.602 485.052 435.936 485.112Z" fill="url(#paint14_linear_13_27)" stroke="black"/>
<path d="M293.326 412.157L293.326 412.157C296.425 411.501 298.723 411.39 300.361 411.652C301.995 411.914 302.915 412.535 303.371 413.298C303.832 414.07 303.889 415.106 303.541 416.343C303.193 417.577 302.456 418.952 301.423 420.33C299.356 423.086 296.174 425.764 292.833 427.258C289.484 428.756 286.093 429.02 283.48 427.173L283.479 427.172C280.704 425.219 279.509 423.449 279.273 421.926C279.04 420.426 279.716 419.009 281.069 417.692C282.423 416.374 284.401 415.215 286.602 414.27C288.797 413.327 291.183 412.609 293.326 412.157ZM293.223 411.668L293.223 411.668L293.223 411.668Z" fill="url(#paint15_linear_13_27)" stroke="black"/>
<path d="M247.119 310.451L247.119 310.451L247.114 310.449C246.964 310.37 246.794 310.171 246.661 309.762C246.531 309.362 246.462 308.83 246.46 308.207C246.458 306.963 246.726 305.451 247.209 304.124C247.699 302.774 248.371 301.721 249.102 301.268C249.449 301.053 249.797 300.979 250.164 301.056C250.542 301.135 250.998 301.387 251.519 301.938C252.692 303.18 253.094 304.38 253.057 305.45C253.021 306.531 252.533 307.547 251.803 308.399C251.072 309.252 250.121 309.912 249.22 310.279C248.29 310.656 247.537 310.675 247.119 310.451Z" fill="url(#paint16_linear_13_27)" stroke="black"/>
<path d="M287.957 226.438L287.958 226.438C288.34 226.639 288.748 226.854 289.18 227.081C294.44 229.845 303.187 234.443 309.663 239.319C313.178 241.966 315.951 244.643 317.167 247.102C317.769 248.321 317.969 249.445 317.731 250.471C317.493 251.493 316.803 252.498 315.463 253.445C314.193 254.343 312.357 254.659 310.036 254.438C307.723 254.217 304.996 253.467 302.014 252.315C296.052 250.013 289.157 246.137 282.675 241.836C276.196 237.537 270.151 232.827 265.888 228.87C263.755 226.89 262.083 225.111 261.025 223.677C260.496 222.958 260.136 222.346 259.944 221.854C259.747 221.345 259.766 221.059 259.833 220.916L259.834 220.915C260.349 219.816 261.551 219.158 263.432 218.954C265.304 218.75 267.725 219.015 270.454 219.638C275.904 220.881 282.44 223.517 287.957 226.438Z" fill="url(#paint17_linear_13_27)" stroke="black"/>
<path d="M472.099 283.476L472.099 283.476L472.101 283.477C472.646 283.763 473.303 284.348 474.022 285.19C474.733 286.024 475.477 287.078 476.202 288.263C477.652 290.634 479.004 293.498 479.85 296.108C480.273 297.413 480.565 298.642 480.684 299.706C480.804 300.781 480.74 301.637 480.5 302.229C480.275 302.784 479.9 303.11 479.296 303.197C478.643 303.291 477.672 303.111 476.296 302.465C470.858 299.914 468.011 294.077 467.507 289.36C467.254 286.991 467.604 285.02 468.4 283.913C468.786 283.375 469.268 283.053 469.842 282.957C470.426 282.859 471.173 282.984 472.099 283.476Z" fill="url(#paint18_linear_13_27)" stroke="black"/>
<path d="M595.233 332.939C592.905 332.325 590.796 330.332 589.177 327.594C587.564 324.866 586.481 321.468 586.169 318.174C585.857 314.872 586.324 311.739 587.736 309.497C589.126 307.29 591.466 305.886 595.08 306.064C601.571 306.391 605.31 308.427 607.206 311.135C609.107 313.849 609.245 317.366 608.252 320.845C607.26 324.322 605.155 327.685 602.694 330.009C600.21 332.353 597.486 333.533 595.233 332.939Z" fill="url(#paint19_linear_13_27)" stroke="black"/>
<path opacity="0.45" d="M443.367 504.487L443.366 504.487C431.219 506.788 418.688 507.973 405.932 507.973C362.169 507.973 321.473 493.961 287.68 469.927L287.679 469.927C267.506 455.608 249.824 437.733 235.371 417.115L234.999 417.375L235.371 417.115C232.236 412.645 229.231 408.041 226.418 403.303L226.417 403.301C209.437 374.963 198.277 342.29 194.727 307.245C193.927 299.287 193.512 291.161 193.512 283V282.997V282.994V282.991V282.988V282.984V282.981V282.978V282.975V282.972V282.969V282.965V282.962V282.959V282.956V282.953V282.949V282.946V282.943V282.94V282.937V282.934V282.93V282.927V282.924V282.921V282.918V282.914V282.911V282.908V282.905V282.902V282.899V282.895V282.892V282.889V282.886V282.883V282.88V282.876V282.873V282.87V282.867V282.864V282.86V282.857V282.854V282.851V282.848V282.845V282.841V282.838V282.835V282.832V282.829V282.825V282.822V282.819V282.816V282.813V282.81V282.806V282.803V282.8V282.797V282.794V282.79V282.787V282.784V282.781V282.778V282.775V282.771V282.768V282.765V282.762V282.759V282.756V282.752V282.749V282.746V282.743V282.74V282.736V282.733V282.73V282.727V282.724V282.721V282.717V282.714V282.711V282.708V282.705V282.702V282.698V282.695V282.692V282.689V282.686V282.683V282.679V282.676V282.673V282.67V282.667V282.663V282.66V282.657V282.654V282.651V282.648V282.644V282.641V282.638V282.635V282.632V282.629V282.625V282.622V282.619V282.616V282.613V282.61V282.606V282.603V282.6V282.597V282.594V282.591V282.587V282.584V282.581V282.578V282.575V282.572V282.568V282.565V282.562V282.559V282.556V282.553V282.549V282.546V282.543V282.54V282.537V282.534V282.53V282.527V282.524V282.521V282.518V282.515V282.511V282.508V282.505V282.502V282.499V282.496V282.492V282.489V282.486V282.483V282.48V282.477V282.473V282.47V282.467V282.464V282.461V282.458V282.455V282.451V282.448V282.445V282.442V282.439V282.436V282.432V282.429V282.426V282.423V282.42V282.417V282.413V282.41V282.407V282.404V282.401V282.398V282.395V282.391V282.388V282.385V282.382V282.379V282.376V282.372V282.369V282.366V282.363V282.36V282.357V282.354V282.35V282.347V282.344V282.341V282.338V282.335V282.332V282.328V282.325V282.322V282.319V282.316V282.313V282.31V282.306V282.303V282.3V282.297V282.294V282.291V282.288V282.284V282.281V282.278V282.275V282.272V282.269V282.266V282.262V282.259V282.256V282.253V282.25V282.247V282.244V282.24V282.237V282.234V282.231V282.228V282.225V282.222V282.218V282.215V282.212V282.209V282.206V282.203V282.2V282.197V282.193V282.19V282.187V282.184V282.181V282.178V282.175V282.171V282.168V282.165V282.162V282.159V282.156V282.153V282.15V282.146V282.143V282.14V282.137V282.134V282.131V282.128V282.125V282.121V282.118V282.115V282.112V282.109V282.106V282.103V282.1V282.097V282.093V282.09V282.087V282.084V282.081V282.078V282.075V282.072V282.068V282.065V282.062V282.059V282.056V282.053V282.05V282.047V282.044V282.04V282.037V282.034V282.031V282.028V282.025V282.022V282.019V282.016V282.012V282.009V282.006V282.003V282V281.997V281.994V281.991V281.988V281.985V281.981V281.978V281.975V281.972V281.969V281.966V281.963V281.96V281.957V281.954V281.95V281.947V281.944V281.941V281.938V281.935V281.932V281.929V281.926V281.923V281.919V281.916V281.913V281.91V281.907V281.904V281.901V281.898V281.895V281.892V281.889V281.885V281.882V281.879V281.876V281.873V281.87V281.867V281.864V281.861V281.858V281.855V281.852V281.848V281.845V281.842V281.839V281.836V281.833V281.83V281.827V281.824V281.821V281.818V281.815V281.812V281.809V281.805V281.802V281.799V281.796V281.793V281.79V281.787V281.784V281.781V281.778V281.775V281.772V281.769V281.766V281.762V281.759V281.756V281.753V281.75V281.747V281.744V281.741V281.738V281.735V281.732V281.729V281.726V281.723V281.72V281.717V281.714V281.711V281.707V281.704V281.701V281.698V281.695V281.692V281.689V281.686V281.683V281.68V281.677V281.674V281.671V281.668V281.665V281.662V281.659V281.656V281.653V281.65V281.647V281.643V281.64V281.637V281.634V281.631V281.628V281.625V281.622V281.619V281.616V281.613V281.61V281.607V281.604V281.601V281.598V281.595V281.592V281.589V281.586V281.583V281.58V281.577V281.574V281.571V281.568V281.565V281.562V281.559V281.556V281.553V281.55V281.547V281.544V281.541V281.538V281.535V281.532V281.529V281.525V281.522V281.519V281.516V281.513V281.51V281.507V281.504V281.501V281.498V281.495V281.492V281.489V281.486V281.483V281.48V281.477V281.474V281.471V281.468V281.465V281.462V281.459V281.456V281.453V281.45V281.447V281.444V281.441V281.438V281.435V281.432V281.429V281.426V281.424V281.421V281.418V281.415V281.412V281.409V281.407C193.635 264.398 195.52 247.833 199.02 231.924C225.801 305.984 276.658 390.455 373.062 436.075L373.263 435.651L373.062 436.075C385.131 441.784 397.906 446.882 411.418 451.266L411.418 451.266C451.294 464.19 488.992 469.723 524.082 470.011C516.856 475.138 509.344 479.783 501.517 483.975C483.454 493.622 463.921 500.628 443.367 504.487Z" fill="url(#paint20_linear_13_27)" stroke="black"/>
<path opacity="0.55" d="M227.146 404.518C281.136 424.39 329.745 433.965 373.252 436.088C479.5 441.274 555.446 401.978 605.722 359.7C595.196 390.439 578.532 418.078 557.245 440.949L557.245 440.949C547.524 451.41 536.846 460.855 525.336 469.114L525.336 469.115C517.727 474.598 509.798 479.541 501.517 483.975C483.454 493.622 463.922 500.628 443.367 504.487L443.366 504.487C431.219 506.788 418.688 507.973 405.932 507.973C362.169 507.973 321.473 493.961 287.68 469.927L287.68 469.927C267.506 455.608 249.824 437.733 235.371 417.115L235.371 417.115C232.505 413.028 229.747 408.829 227.146 404.518Z" fill="url(#paint21_linear_13_27)" stroke="black"/>
<mask id="path-23-inside-1_13_27" fill="white">
<path d="M282.134 99.5682C281.974 99.7039 281.846 99.7717 281.782 99.8396C281.846 99.7717 282.006 99.636 282.134 99.5682Z"/>
</mask>
<path d="M282.134 99.5682C281.974 99.7039 281.846 99.7717 281.782 99.8396C281.846 99.7717 282.006 99.636 282.134 99.5682Z" fill="url(#paint22_linear_13_27)"/>
<path d="M282.134 99.5682L282.781 100.331L281.667 98.6844L282.134 99.5682ZM281.488 98.8051C281.445 98.8416 281.405 98.8701 281.346 98.9123C281.32 98.9304 281.276 98.9614 281.233 98.9937C281.192 99.0257 281.124 99.0799 281.055 99.1529L282.509 100.526C282.472 100.565 282.444 100.586 282.449 100.582C282.454 100.578 282.464 100.571 282.499 100.546C282.559 100.504 282.664 100.43 282.781 100.331L281.488 98.8051ZM282.509 100.526C282.5 100.536 282.5 100.535 282.513 100.523C282.524 100.513 282.539 100.5 282.556 100.487C282.573 100.474 282.588 100.463 282.599 100.455C282.612 100.446 282.613 100.446 282.602 100.452L281.667 98.6844C281.419 98.8156 281.174 99.0271 281.055 99.1529L282.509 100.526Z" fill="black" mask="url(#path-23-inside-1_13_27)"/>
<path d="M293.282 92.2634C303.943 86.6993 321.476 79.4819 345.036 76.2839C382.241 71.2338 434.437 76.2127 498.288 113.489C602.207 174.167 616.848 259.28 618.149 294.692C624.561 167.494 528.692 58.0602 405.964 58.0276L293.282 92.2634ZM293.282 92.2634C325.951 70.5675 364.578 58.0276 405.964 58.0276L293.282 92.2634Z" fill="url(#paint23_linear_13_27)" stroke="black"/>
<path d="M614.035 389.927C607.342 390.062 600.394 390.096 593.222 389.994L593.221 389.994C538.107 389.282 470.584 381.245 400.295 366.965C321.113 350.855 247.968 328.747 194.239 304.714C194.077 304.617 193.891 304.542 193.765 304.491C193.737 304.48 193.713 304.47 193.692 304.461C167.706 292.798 147.723 281.275 134.616 270.626C128.062 265.301 123.248 260.211 120.259 255.449C117.271 250.689 116.131 246.297 116.847 242.338C117.531 238.553 119.938 235.066 124.043 231.925C128.15 228.782 133.927 226.008 141.28 223.656C155.853 218.993 176.512 216.012 202.333 215.019C201.887 216.527 201.442 218.042 201.022 219.583C200.949 219.838 200.88 220.114 200.812 220.386C200.795 220.454 200.778 220.522 200.761 220.588C183.739 221.161 169.913 222.864 160.075 225.741C155.121 227.189 151.15 228.943 148.288 231.021C145.423 233.101 143.637 235.531 143.135 238.326C142.616 241.173 143.472 244.189 145.494 247.307C147.516 250.425 150.728 253.685 155.003 257.054C163.554 263.792 176.447 271.03 192.869 278.468C239.481 299.594 314.735 322.371 400.865 339.884L400.964 339.396L400.865 339.884C481.098 356.175 554.169 364.528 604.751 364.528C625.757 364.528 642.916 363.086 655.102 360.158C661.193 358.695 666.072 356.854 669.573 354.615C673.076 352.376 675.249 349.704 675.811 346.574C676.364 343.51 675.326 340.251 672.954 336.875C670.581 333.498 666.841 329.955 661.884 326.289C652.026 318.998 637.262 311.158 618.577 303.142C618.774 300.548 618.969 297.97 619.095 295.344C622.898 296.949 626.615 298.584 630.248 300.218L630.248 300.218C656.252 311.883 676.246 323.407 689.357 334.06C695.913 339.387 700.728 344.481 703.717 349.247C706.706 354.012 707.846 358.411 707.13 362.378C706.415 366.326 703.825 369.949 699.389 373.193C694.951 376.439 688.7 379.279 680.748 381.655C664.846 386.409 642.248 389.282 614.035 389.927ZM614.035 389.927L614.045 390.426M614.035 389.927C614.034 389.927 614.034 389.927 614.034 389.927L614.045 390.426M614.045 390.426C670.512 389.137 704.642 378.924 707.622 362.467C710.603 345.943 682.497 323.107 630.453 299.762L193.492 304.92C193.527 304.934 193.563 304.949 193.6 304.964C193.734 305.019 193.879 305.078 194.005 305.157C247.78 329.215 320.975 351.338 400.195 367.455C470.506 381.74 538.062 389.782 593.214 390.494C600.393 390.596 607.347 390.562 614.045 390.426Z" fill="url(#paint24_linear_13_27)" stroke="black"/>
<path d="M206.771 201.64C205.912 203.959 205.102 206.301 204.341 208.644C183.758 209.352 161.622 211.41 144.051 216.268C135.216 218.71 127.505 221.868 121.72 225.939C115.931 230.013 112.04 235.027 110.928 241.176C109.767 247.575 111.836 254.011 116.13 260.301C120.423 266.59 126.967 272.776 134.846 278.709C150.605 290.575 171.803 301.502 191.33 310.261M206.771 201.64L191.33 310.261M206.771 201.64C172.03 202.406 143.143 206.181 122.36 212.823C101.385 219.527 88.8638 229.083 86.6589 241.218C85.4861 247.692 87.2863 254.63 91.8345 261.902C96.3841 269.176 103.664 276.752 113.381 284.471C132.815 299.907 161.915 315.851 198.14 331.061C250.502 353.033 317.736 373.451 392.059 388.579C461.448 402.69 526.73 410.048 580.95 411.066C623.022 411.846 658.415 408.792 683.901 402.086C696.645 398.733 706.884 394.473 714.24 389.345C721.592 384.218 726.029 378.249 727.256 371.472C728.406 365.081 726.665 358.239 722.251 351.071C717.835 343.901 710.761 336.436 701.308 328.828C682.528 313.712 654.437 298.096 619.417 283.146C619.415 285.001 619.387 286.827 619.358 288.675C623.9 290.569 628.349 292.495 632.647 294.455C632.647 294.455 632.648 294.455 632.648 294.455L206.771 201.64ZM191.33 310.261C191.329 310.26 191.328 310.26 191.327 310.26L191.537 309.806L191.333 310.262C191.332 310.262 191.331 310.261 191.33 310.261Z" fill="url(#paint25_linear_13_27)" stroke="black"/>
</g>
<defs>
<filter id="filter0_d_13_27" x="0" y="0" width="814" height="574" filterUnits="userSpaceOnUse" color-interpolation-filters="sRGB">
<feFlood flood-opacity="0" result="BackgroundImageFix"/>
<feColorMatrix in="SourceAlpha" type="matrix" values="0 0 0 0 0 0 0 0 0 0 0 0 0 0 0 0 0 0 127 0" result="hardAlpha"/>
<feOffset dy="4"/>
<feGaussianBlur stdDeviation="2"/>
<feComposite in2="hardAlpha" operator="out"/>
<feColorMatrix type="matrix" values="0 0 0 0 0 0 0 0 0 0 0 0 0 0 0 0 0 0 0.25 0"/>
<feBlend mode="normal" in2="BackgroundImageFix" result="effect1_dropShadow_13_27"/>
<feBlend mode="normal" in="SourceGraphic" in2="effect1_dropShadow_13_27" result="shape"/>
</filter>
<radialGradient id="paint0_radial_13_27" cx="0" cy="0" r="1" gradientUnits="userSpaceOnUse" gradientTransform="translate(406.944 283.034) scale(248.297 262.896)">
<stop stop-color="#F9AB63"/>
<stop offset="1" stop-color="#FFCC9C" stop-opacity="0"/>
</radialGradient>
<radialGradient id="paint1_radial_13_27" cx="0" cy="0" r="1" gradientUnits="userSpaceOnUse" gradientTransform="translate(421.018 185.52) scale(253.935 268.865)">
<stop stop-color="#FBDFB6"/>
<stop offset="1" stop-color="#ED8D35"/>
</radialGradient>
<linearGradient id="paint2_linear_13_27" x1="215.611" y1="562.77" x2="303.863" y2="-20.6924" gradientUnits="userSpaceOnUse">
<stop stop-color="#BD602B"/>
<stop offset="1" stop-color="#E28E2B" stop-opacity="0"/>
</linearGradient>
<linearGradient id="paint3_linear_13_27" x1="445.866" y1="597.597" x2="534.118" y2="14.1364" gradientUnits="userSpaceOnUse">
<stop stop-color="#BD7A2B"/>
<stop offset="1" stop-color="#E2832B" stop-opacity="0"/>
</linearGradient>
<linearGradient id="paint4_linear_13_27" x1="297.398" y1="575.142" x2="385.65" y2="-8.32058" gradientUnits="userSpaceOnUse">
<stop stop-color="#BD712B"/>
<stop offset="1" stop-color="#E2992B" stop-opacity="0"/>
</linearGradient>
<linearGradient id="paint5_linear_13_27" x1="464.611" y1="600.433" x2="552.864" y2="16.9694" gradientUnits="userSpaceOnUse">
<stop stop-color="#BD602B"/>
<stop offset="1" stop-color="#E22B57" stop-opacity="0"/>
</linearGradient>
<linearGradient id="paint6_linear_13_27" x1="489.407" y1="604.184" x2="577.659" y2="20.7215" gradientUnits="userSpaceOnUse">
<stop stop-color="#BD712B"/>
<stop offset="1" stop-color="#E22B57" stop-opacity="0"/>
</linearGradient>
<linearGradient id="paint7_linear_13_27" x1="332.432" y1="580.441" x2="420.685" y2="-3.02404" gradientUnits="userSpaceOnUse">
<stop stop-color="#BD832B"/>
<stop offset="1" stop-color="#E22B57" stop-opacity="0"/>
</linearGradient>
<linearGradient id="paint8_linear_13_27" x1="308.513" y1="576.824" x2="396.766" y2="-6.64212" gradientUnits="userSpaceOnUse">
<stop stop-color="#BD832B"/>
<stop offset="1" stop-color="#E22B57" stop-opacity="0"/>
</linearGradient>
<linearGradient id="paint9_linear_13_27" x1="339.568" y1="581.52" x2="427.82" y2="-1.94315" gradientUnits="userSpaceOnUse">
<stop stop-color="#BD712B"/>
<stop offset="1" stop-color="#E22B57" stop-opacity="0"/>
</linearGradient>
<linearGradient id="paint10_linear_13_27" x1="468.407" y1="601.009" x2="556.66" y2="17.5432" gradientUnits="userSpaceOnUse">
<stop stop-color="#BD602B"/>
<stop offset="1" stop-color="#E2782B" stop-opacity="0"/>
</linearGradient>
<linearGradient id="paint11_linear_13_27" x1="531.215" y1="610.504" x2="619.466" y2="27.052" gradientUnits="userSpaceOnUse">
<stop stop-color="#BD7A2B"/>
<stop offset="1" stop-color="#E22B57" stop-opacity="0"/>
</linearGradient>
<linearGradient id="paint12_linear_13_27" x1="352.511" y1="583.477" x2="440.763" y2="0.01619" gradientUnits="userSpaceOnUse">
<stop stop-color="#BD832B"/>
<stop offset="1" stop-color="#E2992B" stop-opacity="0"/>
</linearGradient>
<linearGradient id="paint13_linear_13_27" x1="436.982" y1="596.253" x2="525.234" y2="12.7975" gradientUnits="userSpaceOnUse">
<stop stop-color="#BD832B"/>
<stop offset="1" stop-color="#E2782B" stop-opacity="0"/>
</linearGradient>
<linearGradient id="paint14_linear_13_27" x1="422.752" y1="594.102" x2="511.006" y2="10.6375" gradientUnits="userSpaceOnUse">
<stop stop-color="#BD7A2B"/>
<stop offset="1" stop-color="#E2992B" stop-opacity="0"/>
</linearGradient>
<linearGradient id="paint15_linear_13_27" x1="270.851" y1="571.124" x2="359.102" y2="-12.3324" gradientUnits="userSpaceOnUse">
<stop stop-color="#BD712B"/>
<stop offset="1" stop-color="#E2992B" stop-opacity="0"/>
</linearGradient>
<linearGradient id="paint16_linear_13_27" x1="215.193" y1="562.709" x2="303.446" y2="-20.7566" gradientUnits="userSpaceOnUse">
<stop stop-color="#BD602B"/>
<stop offset="1" stop-color="#E2992B" stop-opacity="0"/>
</linearGradient>
<linearGradient id="paint17_linear_13_27" x1="244.071" y1="567.074" x2="332.324" y2="-16.3886" gradientUnits="userSpaceOnUse">
<stop stop-color="#BD712B"/>
<stop offset="1" stop-color="#E2A42B" stop-opacity="0"/>
</linearGradient>
<linearGradient id="paint18_linear_13_27" x1="433.398" y1="595.714" x2="521.65" y2="12.2484" gradientUnits="userSpaceOnUse">
<stop stop-color="#BD712B"/>
<stop offset="1" stop-color="#E2832B" stop-opacity="0"/>
</linearGradient>
<linearGradient id="paint19_linear_13_27" x1="557.243" y1="614.446" x2="645.496" y2="30.9801" gradientUnits="userSpaceOnUse">
<stop stop-color="#BD712B"/>
<stop offset="1" stop-color="#E2A42B" stop-opacity="0"/>
</linearGradient>
<linearGradient id="paint20_linear_13_27" x1="338.08" y1="497.153" x2="374.464" y2="297.575" gradientUnits="userSpaceOnUse">
<stop stop-color="#BD712B"/>
<stop offset="1" stop-color="#E2992B" stop-opacity="0"/>
</linearGradient>
<linearGradient id="paint21_linear_13_27" x1="449.142" y1="518.773" x2="406.579" y2="358.956" gradientUnits="userSpaceOnUse">
<stop stop-color="#A66D2B"/>
<stop offset="1" stop-color="#AE522B" stop-opacity="0"/>
</linearGradient>
<linearGradient id="paint22_linear_13_27" x1="282.128" y1="99.4413" x2="281.743" y2="99.9508" gradientUnits="userSpaceOnUse">
<stop stop-color="#FADBD1"/>
<stop offset="1" stop-color="#F9F1DD" stop-opacity="0"/>
</linearGradient>
<linearGradient id="paint23_linear_13_27" x1="573.944" y1="20.5178" x2="473.834" y2="153.128" gradientUnits="userSpaceOnUse">
<stop stop-color="#FAEAD1"/>
<stop offset="1" stop-color="#F9E4DD" stop-opacity="0"/>
</linearGradient>
<linearGradient id="paint24_linear_13_27" x1="380.282" y1="421.048" x2="437.347" y2="230.44" gradientUnits="userSpaceOnUse">
<stop stop-color="#FAC2B0"/>
<stop offset="1" stop-color="#F2AA68"/>
</linearGradient>
<linearGradient id="paint25_linear_13_27" x1="376.604" y1="419.947" x2="433.668" y2="229.34" gradientUnits="userSpaceOnUse">
<stop stop-color="#FAC2B0"/>
<stop offset="1" stop-color="#F29168"/>
</linearGradient>
</defs>
</svg>
