<svg width="736" height="566" viewBox="0 0 736 566" fill="none" xmlns="http://www.w3.org/2000/svg">
<g clip-path="url(#clip0_102_2)">
<path d="M650.195 278.21C702.497 243.965 731.131 211.392 724.606 187.598C717.658 162.132 671.817 151.472 603.218 154.851C603.413 155.235 603.575 155.618 603.737 156.001C559.649 62.0102 469.688 0 368.006 0C252.17 0 152.826 80.2998 117.698 193.66C117.893 192.998 118.088 192.301 118.315 191.639C-23.6561 205.679 -41.999 262.045 85.8172 321.095C33.5155 355.339 4.88097 387.912 11.4065 411.706C18.9385 439.332 72.2142 449.504 150.651 443.303C178.376 486.536 216.425 520.224 259.961 541.231C292.946 557.151 329.502 566 368.006 566C469.688 566 560.201 503.885 604.289 408.815C608.964 407.944 729.703 401.847 735.774 356.663C739.053 332.103 706.458 304.198 650.195 278.21ZM606.043 160.983C661.915 157.917 698.342 165.477 703.568 184.637C712.107 215.851 634.417 259.92 631.041 262.429C628.606 225.71 619.613 190.943 605.328 159.415C605.555 159.938 605.815 160.46 606.043 160.983ZM116.335 198.119C117.016 195.715 104.258 233.549 104.258 282.983C104.258 290.716 104.55 297.266 104.972 303.502C104.972 303.502 104.972 303.502 104.939 303.502C-10.4102 255.775 -8.42981 209.72 116.335 198.119ZM27.6067 397.074C22.5746 378.646 47.2483 352.518 92.3752 324.056C100.589 327.679 106.173 329.978 108.024 330.744C113.056 362.62 123.087 392.65 137.177 419.963C134.061 419.893 36.6321 430.065 27.6067 397.074ZM717.788 344.645C713.276 378.193 618.055 383.07 614.548 383.697C625.522 352.762 631.008 321.164 631.69 289.811C635.164 287.686 638.638 285.63 644.092 282.147C692.465 303.502 720.353 325.623 717.788 344.645Z" fill="url(#paint0_radial_102_2)"/>
<path d="M587.472 282.983C587.472 291.204 587.083 299.321 586.304 307.334C585.557 315.242 584.421 323.045 582.96 330.744C579.421 349.138 573.902 366.731 566.63 383.244C559.163 400.279 549.812 416.2 538.937 430.692C527.833 445.498 515.074 458.806 500.952 470.337C481.765 486.049 460.078 498.451 436.671 506.707C415.081 514.371 391.966 518.482 367.974 518.482C335.931 518.482 305.511 511.097 278.077 497.858C250.06 484.342 225.191 464.728 204.9 440.551C172.402 401.847 151.69 351.472 148.865 296.012C148.638 291.692 148.54 287.337 148.54 282.948C148.54 262.185 151.04 242.049 155.748 222.854C159.254 208.501 164.026 194.705 169.838 181.572C205.128 102.247 280.577 47.4135 368.006 47.4135C440.502 47.4135 504.816 85.1421 544.748 143.285C551.176 152.657 556.987 162.585 562.117 172.932C576.239 201.568 585.037 233.723 587.018 267.863C587.31 272.915 587.472 277.931 587.472 282.983Z" fill="url(#paint1_radial_102_2)"/>
<path d="M274.635 404.704C274.343 404.774 274.051 404.843 273.759 404.913C265.999 406.306 264.733 395.228 267.298 385.509C269.278 378.053 273.694 371.086 277.849 371.016C279.115 370.981 280.349 371.609 281.485 373.037C295.186 390.386 282.492 402.614 274.635 404.704Z" fill="#3D3789"/>
<path d="M278.11 497.893C250.092 484.377 225.224 464.763 204.933 440.586C208.601 439.053 212.854 438.148 217.789 438.043C219.185 438.008 220.646 438.043 222.139 438.148C260.871 440.935 262.169 467.237 272.493 481.102C274.831 484.237 276.292 486.989 277.168 489.428C278.499 493.016 278.499 495.838 278.11 497.893Z" fill="#4A3E9E"/>
<g opacity="0.75">
<path d="M325.411 476.921C307.23 458.701 286.744 452.709 287.556 438.252C287.621 437.311 287.751 436.371 287.978 435.36C291.841 418.743 330.702 433.131 347.357 435.36C368.005 438.147 386.088 438.147 389.952 467.236C393.815 496.326 344.76 496.326 325.411 476.921Z" fill="#4A3E9E"/>
<path d="M446.766 427.069C431.864 431.981 413.944 428.184 410.08 418.534C409.593 417.315 409.334 415.991 409.334 414.597C409.334 402.126 436.767 400.872 446.766 392.441C456.506 384.219 465.174 378.332 471.894 377.705C477.641 377.182 481.926 380.561 484.199 389.654C489.361 410.452 463.551 421.53 446.766 427.069Z" fill="#4A3E9E"/>
<path d="M533.255 266.365C525.074 271.243 515.01 275.423 512.9 267.863C511.991 264.658 512.51 259.363 515.205 251.141C522.12 229.926 541.015 220.102 552.475 224.143C555.981 225.362 558.806 227.87 560.364 231.737C569.39 253.894 544.878 259.433 533.255 266.365Z" fill="#4A3E9E"/>
<path d="M239.216 349.278C239.119 349.347 239.021 349.417 238.924 349.487C214.835 363.596 182.109 331.476 184.707 319.004C185.161 316.914 185.713 315.346 186.492 314.162C190.323 308.344 198.927 312.559 218.276 314.858C241.326 317.611 252.949 340.847 239.216 349.278Z" fill="#4A3E9E"/>
<path d="M184.674 274.691C183.797 275.284 182.953 275.702 182.142 275.98C173.896 278.767 171.428 263.927 167.89 252.535C164.61 242.014 167.792 238.391 171.948 239.192C172.727 239.332 173.538 239.645 174.35 240.063C187.271 246.961 194.998 267.759 184.674 274.691Z" fill="#4A3E9E"/>
<path d="M500.951 470.337C481.764 486.049 460.077 498.451 436.67 506.707C435.728 505.662 434.852 504.512 434.138 503.258C431.216 498.381 430.404 491.936 435.144 483.819C445.825 465.46 458.357 471.278 476.473 467.202C483.225 465.669 488.485 465.704 492.608 466.609C496.212 467.376 498.938 468.804 500.951 470.337Z" fill="#4A3E9E"/>
<path d="M582.959 330.744C575.785 368.055 560.396 402.126 538.936 430.692C536.339 429.264 534.002 427.278 532.119 424.526C532.054 424.457 531.989 424.352 531.956 424.282C519.035 404.878 538.417 386.867 546.144 352.239C550.819 331.267 564.032 328.062 573.707 328.828C577.635 329.107 580.979 330.083 582.959 330.744Z" fill="#4A3E9E"/>
<path d="M587.472 282.983C587.472 291.204 587.082 299.321 586.303 307.334C583.835 307.055 581.368 306.184 579.745 303.885C579.193 303.084 578.738 302.143 578.414 300.959C575.817 291.274 566.726 295.002 569.388 285.735C571.986 276.677 576.888 272.183 581.076 269.954C583.446 268.7 585.621 268.142 587.017 267.933C587.309 272.915 587.472 277.931 587.472 282.983Z" fill="#4A3E9E"/>
<path d="M383.492 396.587C383.492 396.621 383.492 396.656 383.459 396.691C380.765 409.024 354.436 404.669 347.326 402.126C339.566 399.339 321.548 386.205 326.678 373.037C328.496 368.368 331.223 366.731 334.469 366.94C342.683 367.358 354.111 379.377 361.545 381.363C375.57 385.09 385.472 387.041 383.492 396.587Z" fill="#4A3E9E"/>
<path d="M209.217 391.047C208.341 392.685 207.334 393.939 206.166 394.845C200.582 399.234 192.173 395.193 184.674 388.295C178.44 382.547 175.875 372.828 178.732 370.145C179.999 368.926 182.369 369.135 185.972 371.678C197.595 379.969 214.379 381.328 209.217 391.047Z" fill="#4A3E9E"/>
<path d="M498.063 382.304C493.777 386.205 488.843 382.547 486.31 377.879C485.434 376.277 484.849 374.605 484.655 373.037C483.875 366.906 485.661 364.571 494.069 369.135C497.673 371.086 499.978 372.863 500.952 374.674C502.186 377.008 501.277 379.377 498.063 382.304Z" fill="#4A3E9E"/>
<path d="M500.984 331.476C500.919 331.337 500.822 331.163 500.757 331.023C496.277 321.757 510.107 320.293 515.204 313.465C519.652 307.508 529.034 298.973 533.904 304.233C534.683 305.07 535.365 306.289 535.852 307.926C542.28 328.689 506.146 341.161 500.984 331.476Z" fill="#4A3E9E"/>
<path d="M404.141 483.854C401.835 483.366 398.394 481.485 396.803 473.821C396.673 473.089 396.511 472.253 396.414 471.382C395.115 461.697 395.115 450.619 400.277 450.619C402.874 450.619 402.874 460.304 411.9 470.023C412.874 471.069 413.426 472.253 413.653 473.472C414.627 478.802 409.4 484.969 404.141 483.854Z" fill="#4A3E9E"/>
<path d="M437.612 356.106C435.372 355.722 433.196 354.886 431.248 353.667C418.717 345.62 433.034 316.774 445.598 327.609C445.988 327.957 446.345 328.306 446.734 328.724C464.298 347.536 450.176 358.335 437.612 356.106Z" fill="#4A3E9E"/>
<path d="M274.635 404.704C273.207 402.962 271.941 400.767 271.194 397.98C269.116 390.246 275.317 376.312 277.882 371.016C279.148 370.981 280.382 371.609 281.518 373.037C295.186 390.386 282.492 402.614 274.635 404.704Z" fill="#4A3E9E"/>
</g>
<g opacity="0.7">
<path d="M294.407 391.048C291.809 391.048 290.543 402.126 293.108 403.519C295.705 404.913 304.731 391.048 294.407 391.048Z" fill="#3D3789"/>
<path d="M548.156 193.556C536.956 192.371 538.287 206.968 548.74 209.929C559.194 212.89 568.025 195.646 548.156 193.556Z" fill="#3D3789"/>
<path d="M490.66 434.002C483.712 434.002 484.199 439.541 490.66 445.08C497.088 450.62 515.171 434.002 490.66 434.002Z" fill="#3D3789"/>
<path d="M200.16 276.05C191.524 279.778 197.563 287.128 204.023 289.915C210.516 292.667 213.081 270.511 200.16 276.05Z" fill="#3D3789"/>
<path d="M176.947 206.794C171.72 207.908 174.35 216.478 182.109 217.872C189.836 219.265 189.836 204.041 176.947 206.794Z" fill="#3D3789"/>
<path d="M547.441 170.772C540.98 172.165 548.74 185.996 553.902 180.457C559.064 174.918 553.902 169.378 547.441 170.772Z" fill="#3D3789"/>
<path d="M322.814 341.161C317.067 344.575 324.112 356.385 333.138 353.633C342.195 350.88 334.436 334.228 322.814 341.161Z" fill="#3D3789"/>
</g>
<path d="M413.652 473.472C414.626 478.802 409.399 484.969 404.139 483.854C401.834 483.366 398.393 481.485 396.802 473.821C403.393 477.479 409.301 475.946 413.652 473.472Z" fill="#3D3789"/>
<path d="M167.89 252.5C164.61 241.979 167.792 238.356 171.948 239.157C167.857 248.703 177.369 267.515 182.174 275.946C173.896 278.733 171.428 263.892 167.89 252.5Z" fill="#3D3789"/>
<path d="M206.166 394.81C200.582 399.2 192.173 395.158 184.674 388.261C178.44 382.512 175.875 372.793 178.732 370.11C181.817 384.986 197.043 391.953 206.166 394.81Z" fill="#3D3789"/>
<path d="M239.216 349.278C239.119 349.347 239.021 349.417 238.924 349.487C214.835 363.596 182.109 331.476 184.707 319.004C185.161 316.914 185.713 315.346 186.492 314.162C190.096 319.387 195.94 326.076 205.355 334.263C219.964 346.978 231.619 349.591 239.216 349.278Z" fill="#3D3789"/>
<path d="M326.677 373.037C328.495 368.368 331.222 366.731 334.469 366.94C329.826 373.629 328.3 382.199 338.3 391.047C353.948 404.843 373.492 400.384 383.459 396.691C380.764 409.024 354.435 404.669 347.325 402.126C339.598 399.339 321.58 386.205 326.677 373.037Z" fill="#3D3789"/>
<path d="M389.952 467.237C393.815 496.326 344.76 496.326 325.411 476.922C307.23 458.702 286.744 452.71 287.556 438.252C299.86 446.091 320.119 462.882 343.494 478.315C377.03 500.471 389.952 467.237 389.952 467.237Z" fill="#3D3789"/>
<path d="M437.612 356.106C449.105 353.18 447.416 336.597 445.598 327.609C445.988 327.958 446.345 328.306 446.735 328.724C464.299 347.536 450.176 358.336 437.612 356.106Z" fill="#3D3789"/>
<path d="M484.2 389.654C489.362 410.417 463.552 421.53 446.768 427.069C431.866 431.981 413.945 428.184 410.082 418.534C414.172 420.903 419.951 423.55 426.12 424.282C437.742 425.676 464.851 420.136 473.876 400.732C479.103 389.549 475.694 382.025 471.896 377.705C477.642 377.182 481.928 380.527 484.2 389.654Z" fill="#3D3789"/>
<path d="M500.92 374.709C502.186 377.008 501.277 379.412 498.063 382.338C493.777 386.24 488.843 382.582 486.31 377.914C492.576 381.084 497.933 377.601 500.92 374.709Z" fill="#3D3789"/>
<path d="M535.82 307.926C542.28 328.689 506.114 341.161 500.952 331.476C500.887 331.337 500.789 331.162 500.725 331.023C529.099 328.375 534.034 314.231 533.839 304.233C534.651 305.069 535.333 306.289 535.82 307.926Z" fill="#3D3789"/>
<path d="M533.255 266.365C525.074 271.242 515.01 275.423 512.899 267.863C522.477 258.666 544.553 256.123 555.234 246.996C563.773 239.68 557.637 229.925 552.507 224.177C556.013 225.397 558.838 227.905 560.396 231.772C569.389 253.893 544.878 259.433 533.255 266.365Z" fill="#3D3789"/>
<path d="M277.167 489.393C278.498 493.016 278.531 495.838 278.109 497.858C250.091 484.342 225.223 464.728 204.932 440.551C208.6 439.018 212.853 438.113 217.788 438.008C222.593 445.115 229.378 453.824 238.923 464.449C247.981 474.517 261.422 482.809 277.167 489.393Z" fill="#3D3789"/>
<path d="M492.575 466.644C496.244 467.376 498.938 468.804 500.951 470.372C481.764 486.083 460.077 498.485 436.67 506.742C435.728 505.697 434.852 504.547 434.137 503.293C458.616 493.956 481.439 476.155 492.575 466.644Z" fill="#3D3789"/>
<path d="M582.959 330.744C575.784 368.055 560.396 402.126 538.936 430.692C536.339 429.264 534.001 427.278 532.118 424.526C557.896 399.443 570.557 344.54 573.739 328.828C577.635 329.107 580.979 330.082 582.959 330.744Z" fill="#3D3789"/>
<path d="M587.472 282.982C587.472 291.204 587.082 299.321 586.303 307.333C583.836 307.055 581.368 306.184 579.745 303.885C586.173 295.35 583.154 278.384 581.076 269.953C583.446 268.699 585.621 268.142 587.017 267.933C587.309 272.914 587.472 277.931 587.472 282.982Z" fill="#3D3789"/>
<path opacity="0.35" d="M587.472 282.983C587.472 291.204 587.083 299.321 586.304 307.334C585.557 315.242 584.421 323.045 582.96 330.744C575.785 368.055 560.396 402.126 538.937 430.692C527.833 445.498 515.074 458.806 500.952 470.337C481.765 486.049 460.078 498.451 436.671 506.707C415.081 514.371 391.966 518.482 367.974 518.482C335.931 518.482 305.511 511.097 278.077 497.858C250.06 484.342 225.191 464.728 204.9 440.551C172.402 401.847 151.69 351.473 148.865 296.012C209.868 495.594 582.96 462.359 562.117 172.967C576.239 201.603 585.037 233.758 587.018 267.898C587.31 272.915 587.472 277.931 587.472 282.983Z" fill="url(#paint2_linear_102_2)"/>
<path opacity="0.55" d="M566.63 383.244C559.163 400.279 549.812 416.2 538.937 430.692C527.833 445.498 515.074 458.806 500.952 470.337C481.765 486.048 460.078 498.451 436.671 506.707C415.081 514.371 391.966 518.482 367.974 518.482C335.931 518.482 305.511 511.096 278.077 497.858C250.06 484.341 225.191 464.728 204.9 440.551C172.402 401.847 151.69 351.472 148.865 296.012C148.638 291.692 148.54 287.337 148.54 282.948C148.54 262.185 151.04 242.049 155.748 222.853C200.42 321.443 322.003 508.693 566.63 383.244Z" fill="url(#paint3_linear_102_2)"/>
<path d="M602.828 279.011C597.861 276.712 592.667 274.448 587.245 272.183C585.135 271.312 582.992 270.407 580.817 269.536C578.869 270.685 576.889 271.835 574.843 272.95C579.194 274.587 583.382 276.259 587.44 277.897C590.979 279.36 594.42 280.823 597.731 282.286C638.021 300.053 661.201 318.447 659.059 334.298C656.721 351.682 624.223 362.795 573.155 366.801C532.866 369.971 480.986 368.682 423.23 362.655C406.575 360.879 389.401 358.754 371.902 356.21C368.039 355.653 364.143 355.061 360.215 354.434C281.356 342.206 210.809 324.056 160.066 304.477C157.923 303.641 155.813 302.805 153.735 301.969C152.144 301.342 150.618 300.715 149.06 300.088C103.381 281.206 76.6622 261.279 78.9348 244.348C81.1749 227.661 111.108 216.792 158.54 212.403C159.059 210.591 159.611 208.78 160.196 207.003C102.277 212.716 64.9097 227.348 61.9554 249.434C59.1958 269.884 86.3369 293.085 133.152 314.754C134.938 315.59 136.756 316.392 138.606 317.228C142.794 319.074 147.144 320.955 151.592 322.767C196.589 341.231 255.611 358.092 321.873 370.389C333.431 372.549 345.248 374.57 357.228 376.416C362.65 377.252 368.006 378.053 373.363 378.785C445.826 389.027 512.51 391.71 564.584 387.738C628.801 382.861 670.811 367.811 673.96 344.331C676.785 323.882 649.644 300.645 602.828 279.011Z" fill="url(#paint4_linear_102_2)"/>
<path d="M544.748 143.355C522.087 120.223 465.5 61.5224 350.572 73.0884C246.424 83.6092 191.265 149.208 169.838 181.606C205.128 102.282 280.577 47.4482 368.006 47.4482C440.502 47.4831 504.815 85.2118 544.748 143.355Z" fill="url(#paint5_linear_102_2)"/>
</g>
<defs>
<radialGradient id="paint0_radial_102_2" cx="0" cy="0" r="1" gradientUnits="userSpaceOnUse" gradientTransform="translate(367.997 282.987) scale(248.941 267.128)">
<stop stop-color="#C7F1F6"/>
<stop offset="1" stop-color="#D3F4F9" stop-opacity="0"/>
</radialGradient>
<radialGradient id="paint1_radial_102_2" cx="0" cy="0" r="1" gradientUnits="userSpaceOnUse" gradientTransform="translate(337.02 158.308) scale(386.894 415.159)">
<stop stop-color="#31E7C2"/>
<stop offset="1" stop-color="#652FB0"/>
</radialGradient>
<linearGradient id="paint2_linear_102_2" x1="480.386" y1="615.544" x2="293.401" y2="134.982" gradientUnits="userSpaceOnUse">
<stop stop-color="#4A3E9E"/>
<stop offset="1" stop-color="#4AE09E" stop-opacity="0.5"/>
</linearGradient>
<linearGradient id="paint3_linear_102_2" x1="376.362" y1="568.581" x2="341.717" y2="199.586" gradientUnits="userSpaceOnUse">
<stop stop-color="#3D3789"/>
<stop offset="1" stop-color="#3DCC5E" stop-opacity="0.2"/>
</linearGradient>
<linearGradient id="paint4_linear_102_2" x1="361.217" y1="427.136" x2="374.589" y2="204.204" gradientUnits="userSpaceOnUse">
<stop stop-color="#83ECEC"/>
<stop offset="1" stop-color="#8EE2D3" stop-opacity="0.3"/>
</linearGradient>
<linearGradient id="paint5_linear_102_2" x1="356.564" y1="11.3367" x2="357.301" y2="142.426" gradientUnits="userSpaceOnUse">
<stop stop-color="#C7F1F6"/>
<stop offset="1" stop-color="#D3F4F9" stop-opacity="0"/>
</linearGradient>
<clipPath id="clip0_102_2">
<rect width="736" height="566" fill="white"/>
</clipPath>
</defs>
</svg>
