<svg width="736" height="566" fill="none" xmlns="http://www.w3.org/2000/svg"><g clip-path="url(#a)"><path d="M650.195 278.21c52.302-34.245 80.936-66.818 74.411-90.612-6.948-25.466-52.789-36.126-121.388-32.747.195.384.357.767.519 1.15C559.649 62.011 469.688 0 368.006 0 252.17 0 152.826 80.3 117.698 193.66c.195-.662.39-1.359.617-2.021-141.971 14.04-160.314 70.406-32.498 129.456-52.301 34.244-80.936 66.817-74.41 90.611 7.532 27.626 60.807 37.798 139.244 31.597 27.725 43.233 65.774 76.921 109.31 97.928C292.946 557.151 329.502 566 368.006 566c101.682 0 192.195-62.115 236.283-157.185 4.675-.871 125.414-6.968 131.485-52.152 3.279-24.56-29.316-52.465-85.579-78.453Zm-44.152-117.227c55.872-3.066 92.299 4.494 97.525 23.654 8.539 31.214-69.151 75.283-72.527 77.792-2.435-36.719-11.428-71.486-25.713-103.014.227.523.487 1.045.715 1.568Zm-489.708 37.136c.681-2.404-12.077 35.43-12.077 84.864 0 7.733.292 14.283.714 20.519h-.033C-10.411 255.775-8.43 209.72 116.335 198.119ZM27.607 397.074c-5.032-18.428 19.641-44.556 64.768-73.018 8.214 3.623 13.798 5.922 15.649 6.688 5.032 31.876 15.063 61.906 29.153 89.219-3.116-.07-100.545 10.102-109.57-22.889Zm690.181-52.429c-4.512 33.548-99.733 38.425-103.24 39.052 10.974-30.935 16.46-62.533 17.142-93.886 3.474-2.125 6.948-4.181 12.402-7.664 48.373 21.355 76.261 43.476 73.696 62.498Z" fill="url(#b)"/><path d="M587.472 282.983c0 8.221-.389 16.338-1.168 24.351a253.27 253.27 0 0 1-3.344 23.41c-3.539 18.394-9.058 35.987-16.33 52.5a238.893 238.893 0 0 1-27.693 47.448c-11.104 14.806-23.863 28.114-37.985 39.645-19.187 15.712-40.874 28.114-64.281 36.37-21.59 7.664-44.705 11.775-68.697 11.775-32.043 0-62.463-7.385-89.897-20.624-28.017-13.516-52.886-33.13-73.177-57.307-32.498-38.704-53.21-89.079-56.035-144.539-.227-4.32-.325-8.675-.325-13.064 0-20.763 2.5-40.899 7.208-60.094 3.506-14.353 8.278-28.149 14.09-41.282 35.29-79.325 110.739-134.159 198.168-134.159 72.496 0 136.81 37.73 176.742 95.872 6.428 9.372 12.239 19.3 17.369 29.647 14.122 28.636 22.92 60.791 24.901 94.931.292 5.052.454 10.068.454 15.12Z" fill="url(#c)"/><path d="m274.635 404.704-.876.209c-7.76 1.393-9.026-9.685-6.461-19.404 1.98-7.456 6.396-14.423 10.551-14.493 1.266-.035 2.5.593 3.636 2.021 13.701 17.349 1.007 29.577-6.85 31.667Z" fill="#3D3789"/><path d="M278.11 497.893c-28.018-13.516-52.886-33.13-73.177-57.307 3.668-1.533 7.921-2.438 12.856-2.543 1.396-.035 2.857 0 4.35.105 38.732 2.787 40.03 29.089 50.354 42.954 2.338 3.135 3.799 5.887 4.675 8.326 1.331 3.588 1.331 6.41.942 8.465Z" fill="#4A3E9E"/><g opacity=".75" fill="#4A3E9E"><path d="M325.411 476.921c-18.181-18.22-38.667-24.212-37.855-38.669.065-.941.195-1.881.422-2.892 3.863-16.617 42.724-2.229 59.379 0 20.648 2.787 38.731 2.787 42.595 31.876 3.863 29.09-45.192 29.09-64.541 9.685ZM446.766 427.069c-14.902 4.912-32.822 1.115-36.686-8.535a10.566 10.566 0 0 1-.746-3.937c0-12.471 27.433-13.725 37.432-22.156 9.74-8.222 18.408-14.109 25.128-14.736 5.747-.523 10.032 2.856 12.305 11.949 5.162 20.798-20.648 31.876-37.433 37.415ZM533.255 266.365c-8.181 4.878-18.245 9.058-20.355 1.498-.909-3.205-.39-8.5 2.305-16.722 6.915-21.215 25.81-31.039 37.27-26.998 3.506 1.219 6.331 3.727 7.889 7.594 9.026 22.157-15.486 27.696-27.109 34.628ZM239.216 349.278l-.292.209c-24.089 14.109-56.815-18.011-54.217-30.483.454-2.09 1.006-3.658 1.785-4.842 3.831-5.818 12.435-1.603 31.784.696 23.05 2.753 34.673 25.989 20.94 34.42ZM184.674 274.691a10.747 10.747 0 0 1-2.532 1.289c-8.246 2.787-10.714-12.053-14.252-23.445-3.28-10.521-.098-14.144 4.058-13.343.779.14 1.59.453 2.402.871 12.921 6.898 20.648 27.696 10.324 34.628ZM500.951 470.337c-19.187 15.712-40.874 28.114-64.281 36.37-.942-1.045-1.818-2.195-2.532-3.449-2.922-4.877-3.734-11.322 1.006-19.439 10.681-18.359 23.213-12.541 41.329-16.617 6.752-1.533 12.012-1.498 16.135-.593 3.604.767 6.33 2.195 8.343 3.728ZM582.959 330.744c-7.174 37.311-22.563 71.382-44.023 99.948-2.597-1.428-4.934-3.414-6.817-6.166a1.06 1.06 0 0 1-.163-.244c-12.921-19.404 6.461-37.415 14.188-72.043 4.675-20.972 17.888-24.177 27.563-23.411 3.928.279 7.272 1.255 9.252 1.916ZM587.472 282.983c0 8.221-.39 16.338-1.169 24.351-2.468-.279-4.935-1.15-6.558-3.449-.552-.801-1.007-1.742-1.331-2.926-2.597-9.685-11.688-5.957-9.026-15.224 2.598-9.058 7.5-13.552 11.688-15.781 2.37-1.254 4.545-1.812 5.941-2.021.292 4.982.455 9.998.455 15.05ZM383.492 396.587c0 .034 0 .069-.033.104-2.694 12.333-29.023 7.978-36.133 5.435-7.76-2.787-25.778-15.921-20.648-29.089 1.818-4.669 4.545-6.306 7.791-6.097 8.214.418 19.642 12.437 27.076 14.423 14.025 3.727 23.927 5.678 21.947 15.224ZM209.217 391.047c-.876 1.638-1.883 2.892-3.051 3.798-5.584 4.389-13.993.348-21.492-6.55-6.234-5.748-8.799-15.467-5.942-18.15 1.267-1.219 3.637-1.01 7.24 1.533 11.623 8.291 28.407 9.65 23.245 19.369ZM498.063 382.304c-4.286 3.901-9.22.243-11.753-4.425-.876-1.602-1.461-3.274-1.655-4.842-.78-6.131 1.006-8.466 9.414-3.902 3.604 1.951 5.909 3.728 6.883 5.539 1.234 2.334.325 4.703-2.889 7.63ZM500.984 331.476c-.065-.139-.162-.313-.227-.453-4.48-9.266 9.35-10.73 14.447-17.558 4.448-5.957 13.83-14.492 18.7-9.232.779.837 1.461 2.056 1.948 3.693 6.428 20.763-29.706 33.235-34.868 23.55ZM404.141 483.854c-2.306-.488-5.747-2.369-7.338-10.033-.13-.732-.292-1.568-.389-2.439-1.299-9.685-1.299-20.763 3.863-20.763 2.597 0 2.597 9.685 11.623 19.404a6.835 6.835 0 0 1 1.753 3.449c.974 5.33-4.253 11.497-9.512 10.382ZM437.612 356.106a17.677 17.677 0 0 1-6.364-2.439c-12.531-8.047 1.786-36.893 14.35-26.058.39.348.747.697 1.136 1.115 17.564 18.812 3.442 29.611-9.122 27.382ZM274.635 404.704a17.71 17.71 0 0 1-3.441-6.724c-2.078-7.734 4.123-21.668 6.688-26.964 1.266-.035 2.5.593 3.636 2.021 13.668 17.349.974 29.577-6.883 31.667Z"/></g><g opacity=".7" fill="#3D3789"><path d="M294.407 391.048c-2.598 0-3.864 11.078-1.299 12.471 2.597 1.394 11.623-12.471 1.299-12.471ZM548.156 193.556c-11.2-1.185-9.869 13.412.584 16.373 10.454 2.961 19.285-14.283-.584-16.373ZM490.66 434.002c-6.948 0-6.461 5.539 0 11.078 6.428 5.54 24.511-11.078 0-11.078ZM200.16 276.05c-8.636 3.728-2.597 11.078 3.863 13.865 6.493 2.752 9.058-19.404-3.863-13.865ZM176.947 206.794c-5.227 1.114-2.597 9.684 5.162 11.078 7.727 1.393 7.727-13.831-5.162-11.078ZM547.441 170.772c-6.461 1.393 1.299 15.224 6.461 9.685 5.162-5.539 0-11.079-6.461-9.685ZM322.814 341.161c-5.747 3.414 1.298 15.224 10.324 12.472 9.057-2.753 1.298-19.405-10.324-12.472Z"/></g><path d="M413.652 473.472c.974 5.33-4.253 11.497-9.513 10.382-2.305-.488-5.746-2.369-7.337-10.033 6.591 3.658 12.499 2.125 16.85-.349ZM167.89 252.5c-3.28-10.521-.098-14.144 4.058-13.343-4.091 9.546 5.421 28.358 10.226 36.789-8.278 2.787-10.746-12.054-14.284-23.446ZM206.166 394.81c-5.584 4.39-13.993.348-21.492-6.549-6.234-5.749-8.799-15.468-5.942-18.151 3.085 14.876 18.311 21.843 27.434 24.7ZM239.216 349.278l-.292.209c-24.089 14.109-56.815-18.011-54.217-30.483.454-2.09 1.006-3.658 1.785-4.842 3.604 5.225 9.448 11.914 18.863 20.101 14.609 12.715 26.264 15.328 33.861 15.015ZM326.677 373.037c1.818-4.669 4.545-6.306 7.792-6.097-4.643 6.689-6.169 15.259 3.831 24.107 15.648 13.796 35.192 9.337 45.159 5.644-2.695 12.333-29.024 7.978-36.134 5.435-7.727-2.787-25.745-15.921-20.648-29.089ZM389.952 467.237c3.863 29.089-45.192 29.089-64.541 9.685-18.181-18.22-38.667-24.212-37.855-38.67 12.304 7.839 32.563 24.63 55.938 40.063 33.536 22.156 46.458-11.078 46.458-11.078ZM437.612 356.106c11.493-2.926 9.804-19.509 7.986-28.497.39.349.747.697 1.137 1.115 17.564 18.812 3.441 29.612-9.123 27.382ZM484.2 389.654c5.162 20.763-20.648 31.876-37.432 37.415-14.902 4.912-32.823 1.115-36.686-8.535 4.09 2.369 9.869 5.016 16.038 5.748 11.622 1.394 38.731-4.146 47.756-23.55 5.227-11.183 1.818-18.707-1.98-23.027 5.746-.523 10.032 2.822 12.304 11.949ZM500.92 374.709c1.266 2.299.357 4.703-2.857 7.629-4.286 3.902-9.22.244-11.753-4.424 6.266 3.17 11.623-.313 14.61-3.205ZM535.82 307.926c6.46 20.763-29.706 33.235-34.868 23.55-.065-.139-.163-.314-.227-.453 28.374-2.648 33.309-16.792 33.114-26.79.812.836 1.494 2.056 1.981 3.693ZM533.255 266.365c-8.181 4.877-18.245 9.058-20.356 1.498 9.578-9.197 31.654-11.74 42.335-20.867 8.539-7.316 2.403-17.071-2.727-22.819 3.506 1.22 6.331 3.728 7.889 7.595 8.993 22.121-15.518 27.661-27.141 34.593ZM277.167 489.393c1.331 3.623 1.364 6.445.942 8.465-28.018-13.516-52.886-33.13-73.177-57.307 3.668-1.533 7.921-2.438 12.856-2.543 4.805 7.107 11.59 15.816 21.135 26.441 9.058 10.068 22.499 18.36 38.244 24.944ZM492.575 466.644c3.669.732 6.363 2.16 8.376 3.728-19.187 15.711-40.874 28.113-64.281 36.37-.942-1.045-1.818-2.195-2.533-3.449 24.479-9.337 47.302-27.138 58.438-36.649ZM582.959 330.744c-7.175 37.311-22.563 71.382-44.023 99.948-2.597-1.428-4.935-3.414-6.818-6.166 25.778-25.083 38.439-79.986 41.621-95.698 3.896.279 7.24 1.254 9.22 1.916ZM587.472 282.982c0 8.222-.39 16.339-1.169 24.351-2.467-.278-4.935-1.149-6.558-3.448 6.428-8.535 3.409-25.501 1.331-33.932 2.37-1.254 4.545-1.811 5.941-2.02.292 4.981.455 9.998.455 15.049Z" fill="#3D3789"/><path opacity=".35" d="M587.472 282.983c0 8.221-.389 16.338-1.168 24.351a253.27 253.27 0 0 1-3.344 23.41c-7.175 37.311-22.564 71.382-44.023 99.948-11.104 14.806-23.863 28.114-37.985 39.645-19.187 15.712-40.874 28.114-64.281 36.37-21.59 7.664-44.705 11.775-68.697 11.775-32.043 0-62.463-7.385-89.897-20.624-28.017-13.516-52.886-33.13-73.177-57.307-32.498-38.704-53.21-89.078-56.035-144.539 61.003 199.582 434.095 166.347 413.252-123.045 14.122 28.636 22.92 60.791 24.901 94.931.292 5.017.454 10.033.454 15.085Z" fill="url(#d)"/><path opacity=".55" d="M566.63 383.244a238.893 238.893 0 0 1-27.693 47.448c-11.104 14.806-23.863 28.114-37.985 39.645-19.187 15.711-40.874 28.114-64.281 36.37-21.59 7.664-44.705 11.775-68.697 11.775-32.043 0-62.463-7.386-89.897-20.624-28.017-13.517-52.886-33.13-73.177-57.307-32.498-38.704-53.21-89.079-56.035-144.539-.227-4.32-.325-8.675-.325-13.064 0-20.763 2.5-40.899 7.208-60.095 44.672 98.59 166.255 285.84 410.882 160.391Z" fill="url(#e)"/><path d="M602.828 279.011c-4.967-2.299-10.161-4.563-15.583-6.828-2.11-.871-4.253-1.776-6.428-2.647a201.955 201.955 0 0 1-5.974 3.414c4.351 1.637 8.539 3.309 12.597 4.947a466.389 466.389 0 0 1 10.291 4.389c40.29 17.767 63.47 36.161 61.328 52.012-2.338 17.384-34.836 28.497-85.904 32.503-40.289 3.17-92.169 1.881-149.925-4.146a1357.891 1357.891 0 0 1-51.328-6.445 783.642 783.642 0 0 1-11.687-1.776c-78.859-12.228-149.406-30.378-200.149-49.957a645.654 645.654 0 0 1-6.331-2.508c-1.591-.627-3.117-1.254-4.675-1.881-45.679-18.882-72.398-38.809-70.125-55.74 2.24-16.687 32.173-27.556 79.605-31.945a144.969 144.969 0 0 1 1.656-5.4c-57.919 5.713-95.286 20.345-98.24 42.431-2.76 20.45 24.38 43.651 71.196 65.32 1.786.836 3.604 1.638 5.454 2.474 4.188 1.846 8.538 3.727 12.986 5.539 44.997 18.464 104.019 35.325 170.281 47.622a1127.005 1127.005 0 0 0 35.355 6.027 948.596 948.596 0 0 0 16.135 2.369c72.463 10.242 139.147 12.925 191.221 8.953 64.217-4.877 106.227-19.927 109.376-43.407 2.825-20.449-24.316-43.686-71.132-65.32Z" fill="url(#f)"/><path d="M544.748 143.355c-22.661-23.132-79.248-81.833-194.176-70.267-104.148 10.521-159.307 76.12-180.734 108.518 35.29-79.324 110.739-134.158 198.168-134.158 72.496.035 136.809 37.764 176.742 95.907Z" fill="url(#g)"/></g><defs><linearGradient id="d" x1="480.386" y1="615.544" x2="293.401" y2="134.982" gradientUnits="userSpaceOnUse"><stop stop-color="#4A3E9E"/><stop offset="1" stop-color="#4AE09E" stop-opacity=".5"/></linearGradient><linearGradient id="e" x1="376.362" y1="568.581" x2="341.717" y2="199.586" gradientUnits="userSpaceOnUse"><stop stop-color="#3D3789"/><stop offset="1" stop-color="#3DCC5E" stop-opacity=".2"/></linearGradient><linearGradient id="f" x1="361.217" y1="427.136" x2="374.589" y2="204.204" gradientUnits="userSpaceOnUse"><stop stop-color="#83ECEC"/><stop offset="1" stop-color="#8EE2D3" stop-opacity=".3"/></linearGradient><linearGradient id="g" x1="356.564" y1="11.337" x2="357.301" y2="142.426" gradientUnits="userSpaceOnUse"><stop stop-color="#C7F1F6"/><stop offset="1" stop-color="#D3F4F9" stop-opacity="0"/></linearGradient><radialGradient id="b" cx="0" cy="0" r="1" gradientUnits="userSpaceOnUse" gradientTransform="matrix(248.941 0 0 267.128 367.997 282.987)"><stop stop-color="#C7F1F6"/><stop offset="1" stop-color="#D3F4F9" stop-opacity="0"/></radialGradient><radialGradient id="c" cx="0" cy="0" r="1" gradientUnits="userSpaceOnUse" gradientTransform="matrix(386.894 0 0 415.159 337.02 158.308)"><stop stop-color="#31E7C2"/><stop offset="1" stop-color="#652FB0"/></radialGradient><clipPath id="a"><path fill="#fff" d="M0 0h736v566H0z"/></clipPath></defs></svg>